<svg xmlns="http://www.w3.org/2000/svg" viewBox="0 0 376.9 632.04"><defs><style>.cls-1{fill:#fff;}</style></defs><title>homeobject</title><g id="Layer_2" data-name="Layer 2"><g id="Layer_1-2" data-name="Layer 1"><path class="cls-1" d="M234.66,584.27c-.3-8.91-.48-17.83-.94-26.74-.16-3.17,0-7.08-1.68-9.33-11-14.44-22.58-28.42-33.73-42.74-4.46-5.71-7.83-4.33-11.64.55-11.18,14.33-22.66,28.44-33.61,43-1.71,2.27-1.89,6.22-1.69,9.32.52,7.69,1.67,15.34,2.56,23l-3.73,3.59c8.05,2.82,16.33,5.12,24,8.67,4.55,2.09,8.17,6.17,12.21,9.36-4.34,4.27-8,10.19-13.2,12.38-5.56,2.34-11.65.35-14-7.52a89.83,89.83,0,0,0-11-23.51c-4.32,13,7.28,25.7-1.2,38.63-1.19-5.59-1.77-11.4-3.75-16.69s-5.41-10.21-8.2-15.29L131,592.24c1.37,6.9,2.35,13.91,4.19,20.68,3.62,13.32-.13,19.55-12.08,19.1-10.28-.39-13.94-6-9-15,2.11-3.83,7-6.22,8.77-10.11,2-4.46,1.89-9.86,2.7-14.85-4.43,1.49-9.93,1.83-13.06,4.73-5.49,5.1-9.36,11.89-14.21,17.73-7.74,9.31-10.36,9-17.32-2.24l22.48-24.17-42.5-31.78c-3.21,2.47-10.18,6.81-15.89,12.44-7.65,7.55-14,7.34-21.72-2.17,8.32-6.65,17.08-12.49,24.25-19.88,3.62-3.73,6.44-10.43,6-15.5-1.23-14.91,2.51-22.08,17.38-26.6,4.67-1.42,9.83-2.88,14.52-2.3,18.32,2.25,28.19-9.5,40-22.93-5,0-8.21-.43-11.28.07-39.43,6.33-65.57-13.79-84.66-44.64C2.26,390.72-2.2,340.91.81,290.9c2.51-41.54,7.94-83.09,15.13-124.1,7.3-41.59,20.8-81.43,50.5-113.52C89.78,28.05,118.17,10.79,152,5,174.54,1.2,198-1,220.75.45c34.31,2.18,63.61,18.3,88.95,41.38,42.95,39.1,59.45,89.89,61.25,145.77,1.85,57.36.57,114.82,1.41,172.22.28,18.77,2.89,37.5,4.54,57.55-5.79-.68-12.52-.9-18.88-2.58-1.84-.49-3.72-5.17-3.67-7.89,1.09-61.18,1.66-122.38,4.08-183.51,1.32-33.39-4.68-64.81-17.16-95.37-13-31.86-30.56-60.88-55.62-84.75-43.8-41.71-107.08-48.21-161-18.34C76,52,46.9,93.22,32.88,146.18a38.19,38.19,0,0,0-.66,5.26L35,153.33c2.76-3.6,6.69-6.79,8.08-10.85C61.72,88.23,98.82,52.84,152.43,34c6.06-2.14,12.57-3.66,17.93-7,13-8,24.19-5.44,37,1.45,14.12,7.61,30.58,10.92,44.54,18.75,22.08,12.39,38.74,31.25,53,52.72-33.49-24.62-65.58-52.11-111.46-54.4V91.84q0,13.13,0,26.24c0,28.51,20.45,50,49.3,51,30.67,1,55.24,12,70.08,40.32,1.38,2.62,3.68,4.76,5.9,7.57l13-4c1.94,2.89,3.72,5.75,5.71,8.47,3.86,5.28,3.68,9.82-2.28,13.32-7,4.11-8.73,10.06-8.79,18.08-.11,13.63-.85,27.45-3.34,40.81-1.75,9.4,2,15.7,6,23.13,6.44,11.85,13.65,23.9,16.72,36.77,3.33,14-1.22,27.22-16,34.24a10.32,10.32,0,0,0-3.46,2.76c-.63.78-.65,2.06-.38,1.09l15.09,9.05L326,410.61l13,2c-7.64,7.6-12.47,16.15-18.78,17.43-4.57.93-14.15-6.87-15.82-12.47-1.4-4.72-1.28-10.55-3.38-15.91-.56-1.42,3.55-5.83,6.33-7.09s6.53-.28,13.7-.28l-30-24.54c-28,18.74-32.36,47.4-33.56,74.19,18.4,8,36,13.87,51.7,22.89,20.49,11.73,29.47,33,36.89,54.17,5.1,14.59,8.58,29.76,12.26,44.8.49,2-1.5,5.68-3.41,6.87s-5.82,1.13-7.58-.14c-6.44-4.64-12.08-10.41-18.6-14.91-2.23-1.54-7.34-2-9.16-.55-12,9.69-23.41,20-36.48,31.46L304,612.82c-5.67,10.6-9.85,11.1-16.67,2.08C282.12,608,277.2,600.63,271,594.62c-2.39-2.32-7.86-1.48-11.92-2.08.35,4.23-.32,8.94,1.36,12.56s6.69,5.49,8.4,9c2.08,4.27,2.22,9.49,3.2,14.29-6.37.49-13.16,2.55-19,1-5.18-1.38-8.8-6.34-5.51-13.63,3.13-6.95,4.53-14.69,7.26-24-19.77,5-9.76,22.47-19.14,33.83-2.13-12.73-3-22.35,3-31.27,4.14-6.13,2-8.89-4.3-10.3ZM67.37,392.37c-6.52-5.07-10.84-7.62-14.05-11.16-3.41-3.75-7.81-8.27-8.21-12.77-1.57-17.61-1-35.39,12.15-49.29,10.13-10.72,14-22.79,12.57-37.3-.51-5.13,1-10.47,1.67-15.71,8.25,43.77,18.4,85.19,54.45,116.41,5.39-15.25,9.4-28.68,14.82-41.52,13.06-31,27.2-61.53,39.94-92.64,3.15-7.7,8.2-7.07,13.37-6.31,3.67.54,8.9,2.9,10.12,5.84,13.41,32.1,26.1,64.5,39.12,96.77,5.33,13.21,11,26.29,17.19,41.1,5.35-4.91,9.83-8.31,13.44-12.47,28-32.22,40.87-70.31,42.77-112.45.37-8.32,2.22-17.85-1-24.82-15.12-33-30.72-51.12-72.51-54.05-9.41-.65-19.71-3.54-27.5-8.62-11-7.15-20-17.31-30.42-26.72-.7,1.59-2.07,4.93-3.62,8.17-7.09,14.89-17.5,27.56-33.41,31.92-19.82,5.44-40.77,6.94-58.53,20.31,3.54-7.33,7.59-14.64,13.78-17.88,10.85-5.7,22.85-9.42,34.66-13,31.27-9.59,45.84-28.86,45.76-61.42,0-19.78-.46-39.56.19-59.31.32-9.54-3.14-11.71-12-10.8-35,3.59-62.78,20.57-86.33,45.63-26.54,28.24-40.27,61.13-41.09,100.54-.67,32.64,7,63.06,16.69,93.45,1.77,5.55,4.17,10.62-4.24,14.93-14.06-28-18-58.44-25.8-87.82A7.39,7.39,0,0,0,29,215.28C17.61,257.56,16.27,300.77,18.18,344.1c1.16,26.19,6.28,51.57,17.15,76,17.25,38.68,44.42,54.6,86,48.2,8.75-1.35,13.88-4.54,11.26-15-4.69-18.68-7.31-38-13.19-56.23-3-9.28-11.09-17-17.15-25.16-.85-1.14-4.06-2.13-4.82-1.51-7.89,6.44-15.5,13.23-24,20.6,2.68.93,3.71,1.21,4.68,1.63,3.84,1.62,7.67,3.29,11.51,4.94-1.84,3.31-3.91,6.51-5.44,10a30,30,0,0,0-1.73,7.22c-1.36,8.08-11.73,16.59-17.62,14.39-4.11-1.54-18.68-26.77-16.86-30.64,1.23-2.61,4.59-4.77,7.48-5.87C58.05,391.6,61.27,392.37,67.37,392.37Zm132.29-98.59L196,294.89c0,4.08,0,8.15,0,12.23.62,57,1.46,114,1.68,170.94,0,10.2,3,18.49,9.54,25.82,14.38,16.06,28.7,32.17,43.42,47.91,1.78,1.91,6.57,3.1,8.83,2.09,8.53-3.82,17.37-7.7,24.64-13.4,9.77-7.68,9.39-14,.49-22.56-11.78-11.31-23.63-22.55-35.7-33.54-6.3-5.73-10-11.59-7.95-20.81,3.21-14.75,6.2-29.67,7.51-44.67,1.19-13.73,3.05-28.54-.71-41.31-8-27.11-19-53.35-29.6-79.65-5.5-13.68-12.63-26.71-19-40L196.31,259c.27,8.33-1.44,15.65,5.6,24.26C218.13,303.12,224,327.52,225,353c0,.41-1,.85-2.63,2.07C207.2,337.59,214.2,311.14,199.66,293.78Zm-10.28-30.73-3.9-1.45c-.94,1.16-2.18,2.18-2.77,3.5-13.05,29.37-26.3,58.67-38.92,88.23-6.54,15.32-11.74,30.73-8,48.39,4.4,20.7,7,41.84,9.25,62.91a22.29,22.29,0,0,1-5.33,15.73c-12.71,13.5-26.65,25.83-39.71,39-2.88,2.91-5.82,7.68-5.57,11.39.56,8.62,27.6,25.68,36.22,23.57,1.94-.47,3.68-2.37,5.17-3.94,13-13.69,25.73-27.62,38.89-41.16,9.6-9.88,13.28-21.44,13.23-35.07-.21-56.21,0-112.43,0-168.64,0-3.56-.35-7.12-.54-10.69l-3.92-.67q-9.36,31.07-18.71,62.11l-3.91-.64c-.39-4.14-2.21-8.8-.94-12.34,7.51-20.9,15.81-41.52,23.66-62.3C185.84,275.14,187.48,269,189.38,263.05ZM344,548.15c0-2.82.37-4.75-.05-6.48-8.45-35.21-29.26-61-61.12-77.5-7.07-3.65-16-4.29-24.2-5-5.42-.45-9.45,2.29-7,9.38,5.79,16.76,26.26,31.53,44.07,31.37,22.68-.2,33.24,8.85,34.34,31.3C330.44,540.38,334,545.25,344,548.15ZM237.7,561.6c1.83,15.34,7.13,20.44,20.76,20.66,25.8.4,58.81-27.47,62.64-52.88,2-13.48-3.5-20.28-18.25-21.54.81,17.71-9.31,30.3-19.92,42.94C270.44,565.66,253.79,562.27,237.7,561.6Zm-92,.56c-43.91-1.27-56.29-12-62.91-54.51-14.09-.75-19.63,4.16-19,16.87,1.35,28.12,35.3,59,63.42,57.73C140.58,581.63,145.47,576.32,145.67,562.16ZM73.93,317c-12.06,8.57-22.34,34.72-19,47.52,2.66,10.12,11.36,15,20.8,11.67,11-3.87,17.06-15.45,12.84-26.28C84.26,338.78,78.89,328,73.93,317Zm242.73,4.34c-4.73,9.34-9.31,18.7-14.2,27.88-3.23,6.05-5.48,12.44.52,17.38s12.93,9.63,20.22,12.23c2.5.89,9.09-4,10.82-7.7C340.72,356.94,331.45,330.5,316.66,321.36Z"/><path class="cls-1" d="M234.42,584.05c-3.09,8.79-5.25,18.1-9.75,26.09-1.73,3.08-9.9,5.56-13.17,4.05-5-2.31-8.39-8.31-12.45-12.74,3.57-2.78,6.77-6.4,10.79-8.17,8-3.54,16.52-6.06,24.82-9Z"/><path class="cls-1" d="M91.41,233.33l78.51,22.9C155.48,269.9,108.46,256.22,91.41,233.33Z"/><path class="cls-1" d="M219.47,256.69l74.73-25.52C287.73,251.33,237.86,269.75,219.47,256.69Z"/><path class="cls-1" d="M154.21,288c-21.19,21.16-47.65,9.38-57.55-26.2C110.91,281.14,127.75,294.8,154.21,288Z"/><path class="cls-1" d="M292.68,258.51c-.67,17-9.31,28.64-23.48,35-11.29,5.09-23.3,4.67-34.11-5.2C261.34,291.52,280.14,281.32,292.68,258.51Z"/><path class="cls-1" d="M190.54,193.94c4.2,5.56,8.62,9.09,8,11.17-.95,3.29-5,7.24-8.25,7.79-2.3.38-7.62-4.31-7.71-6.88C182.49,202.93,186.5,199.7,190.54,193.94Z"/><path class="cls-1" d="M306.17,528c9.08,17.19-3.34,34.09-24,33C290.34,549.71,307.71,545.74,306.17,528Z"/><path class="cls-1" d="M104.6,561c-19.36,3.3-33.27-14.81-26.52-36.88C82.41,541.68,89.77,554.13,104.6,561Z"/></g></g></svg>