<svg xmlns="http://www.w3.org/2000/svg" viewBox="0 0 1414.97 674.16"><defs><style>.cls-1{fill:#fff;}.cls-2{fill:#dc3545;}</style></defs><title>logonew</title><g id="Layer_2" data-name="Layer 2"><g id="Layer_1-2" data-name="Layer 1"><path class="cls-1" d="M921.08,22.77a21.57,21.57,0,1,1,43.14,0,21.57,21.57,0,1,1-43.14,0Z"/><path class="cls-1" d="M429.71.72h39.83V247.49H429.71Z"/><path class="cls-1" d="M637.55,139.9c0-35.28-19.21-53.44-48.2-53.44-29.35,0-48.56,18.16-48.56,53.44V247.49H501V55h39.82V77C553.71,61.31,575,51.88,598.08,51.88,643.14,51.88,677,80.17,677,134V247.49H637.55Z"/><path class="cls-1" d="M784.6,51.88c25.15,0,51.7,11.87,66.37,30V0h40.17V247.49H851v-29c-12.23,17.47-35.28,32.14-66.72,32.14-50.65,0-90.82-40.87-90.82-100.25S733.6,51.88,784.6,51.88Zm8,34.58c-29.69,0-58.33,22.36-58.33,63.93s28.64,65.67,58.33,65.67c30,0,58.34-23.41,58.34-65C851,109.86,822.67,86.46,792.63,86.46Z"/><rect class="cls-1" x="922.57" y="55.02" width="39.82" height="192.47"/><path class="cls-1" d="M1071.37,51.88c32.49,0,54.84,15.37,66.72,31.09V55h40.17V247.49h-40.17V218.85c-12.23,16.42-35.28,31.79-67.42,31.79-50,0-90.12-40.87-90.12-100.25S1020.72,51.88,1071.37,51.88Zm8.38,34.58c-29.69,0-58.33,22.36-58.33,63.93s28.64,65.67,58.33,65.67c30,0,58.34-23.41,58.34-65C1138.09,109.86,1109.79,86.46,1079.75,86.46Z"/><path class="cls-1" d="M1346.27,139.9c0-35.28-19.21-53.44-48.21-53.44-29.34,0-48.55,18.16-48.55,53.44V247.49h-39.82V55h39.82V77c12.92-15.72,34.23-25.15,57.29-25.15,45.06,0,78.94,28.29,78.94,82.09V247.49h-39.47Z"/><path class="cls-1" d="M429.26,280.63H473l86.75,193.76,86.39-193.76h43.38V527.72H649V358.49L573.61,527.72H545.52L469.79,358.49V527.72H429.26Z"/><path class="cls-1" d="M805.75,530.92c-56.18,0-97.77-39.82-97.77-101.33s39.82-101,97.77-101c55.82,0,95.28,38.76,95.28,96.35a125.72,125.72,0,0,1-1.42,19.91H749.93c2.84,32.35,26,51.91,55.82,51.91,24.89,0,38.75-12.09,46.22-27.38H895.7C884.68,503.54,853.74,530.92,805.75,530.92ZM750.28,412.17H858.72C858,382,834.19,362.75,804,362.75,776.6,362.75,754.55,381.24,750.28,412.17Z"/><path class="cls-1" d="M998.43,328.62c33.07,0,55.82,15.65,67.91,31.64V331.82h40.88v195.9h-40.88V498.57c-12.45,16.71-35.91,32.35-68.62,32.35-50.84,0-91.73-41.6-91.73-102S946.88,328.62,998.43,328.62Zm8.54,35.2c-30.22,0-59.38,22.76-59.38,65.06s29.16,66.84,59.38,66.84c30.57,0,59.37-23.82,59.37-66.13C1066.34,387.64,1037.54,363.82,1007,363.82Z"/><path class="cls-1" d="M1139.21,264.63h40.53V527.72h-40.53Z"/><path class="cls-1" d="M23,634.62c9.35,0,15.64-6.19,15.64-15.41V576.13H30.11v43.08c0,2.82-.93,7.55-7.15,7.55s-7.49-4.72-7.55-8.67l0-1.48H6.84v1.5C6.84,628.14,13.16,634.62,23,634.62Z"/><path class="cls-1" d="M76.47,634.07h9L90.27,621h22.91l4.8,13.05h9l-21.07-57.23H97.62ZM93,613.47l8.71-23.86,8.71,23.86Z"/><polygon class="cls-1" points="171.39 576.13 163.59 576.13 163.59 634.07 172.08 634.07 172.08 591.34 200.2 634.07 208 634.07 208 576.13 199.51 576.13 199.51 618.78 171.39 576.13"/><polygon class="cls-1" points="251.61 596.1 259.75 576.13 250.01 576.13 244.65 596.1 251.61 596.1"/><path class="cls-1" d="M314,627c-9.59,0-11-6.67-11.24-8.72l-.14-1.34h-8.72l.06,1.55c.35,9.5,8.6,16.14,20,16.14,12.6,0,19.19-8.31,19.19-16.51,0-12-9.77-14.68-17.62-16.83S303,597.53,303,591.54a7.49,7.49,0,0,1,2.2-5.54,11.16,11.16,0,0,1,8.08-2.79c7.34.07,10.05,4.68,10.49,7.39l.21,1.25H333l-.21-1.68c-1.12-8.91-8.64-14.67-19.18-14.67-11.25,0-19.1,6.66-19.1,16.2,0,12.11,9.75,14.72,17.58,16.82s12.61,3.68,12.61,9.83C324.66,623.52,320.39,627,314,627Z"/><polygon class="cls-1" points="457.98 583.68 457.98 576.13 425.27 576.13 425.27 634.07 433.77 634.07 433.77 608.76 454.21 608.76 454.21 601.21 433.77 601.21 433.77 583.68 457.98 583.68"/><path class="cls-1" d="M491.05,634.07h9l4.8-13.05h22.91l4.8,13.05h9l-21.07-57.23H512.2Zm16.55-20.6,8.7-23.86L525,613.47Z"/><polygon class="cls-1" points="634.85 634.07 634.85 576.84 626.49 576.84 606.47 621.67 586.45 576.84 578.17 576.84 578.17 634.07 586.66 634.07 586.66 596.41 603.54 634.07 609.48 634.07 626.36 596.27 626.36 634.07 634.85 634.07"/><rect class="cls-1" x="675.8" y="576.13" width="8.49" height="57.94"/><polygon class="cls-1" points="725.24 576.13 725.24 634.07 753.47 634.07 753.47 626.6 733.74 626.6 733.74 576.13 725.24 576.13"/><polygon class="cls-1" points="811.48 634.07 811.48 611.56 830.07 576.13 820.54 576.13 807.23 602.82 793.85 576.13 784.24 576.13 802.99 611.56 802.99 634.07 811.48 634.07"/><polygon class="cls-1" points="918.54 576.13 918.54 634.07 927.04 634.07 927.04 610.96 948.72 634.07 960.06 634.07 932.7 605.06 959.81 576.13 948.71 576.13 927.04 599.51 927.04 576.13 918.54 576.13"/><rect class="cls-1" x="994.64" y="576.13" width="8.49" height="57.94"/><polygon class="cls-1" points="1063.97 634.07 1063.97 583.68 1079.23 583.68 1079.23 576.13 1040.15 576.13 1040.15 583.68 1055.48 583.68 1055.48 634.07 1063.97 634.07"/><path class="cls-1" d="M1142.27,583.28c8.31,0,14.52,3.89,17.49,11l.38.92h9.59l-.75-2c-4.18-11.21-13.92-17.64-26.71-17.64-16.45,0-28.38,12.43-28.38,29.56s11.93,29.48,28.38,29.48c12.77,0,22.5-6.37,26.71-17.47l.77-2h-9.6l-.39.91c-3,7-9.2,10.81-17.49,10.81-11.81,0-19.74-8.72-19.74-21.7S1130.46,583.28,1142.27,583.28Z"/><polygon class="cls-1" points="1252.24 634.07 1252.24 576.13 1243.75 576.13 1243.75 600.81 1216.95 600.81 1216.95 576.13 1208.45 576.13 1208.45 634.07 1216.95 634.07 1216.95 608.36 1243.75 608.36 1243.75 634.07 1252.24 634.07"/><polygon class="cls-1" points="1324.95 583.6 1324.95 576.05 1293.27 576.05 1293.27 634.07 1324.95 634.07 1324.95 626.52 1301.76 626.52 1301.76 608.68 1322.6 608.68 1322.6 601.13 1301.76 601.13 1301.76 583.6 1324.95 583.6"/><polygon class="cls-1" points="1372.06 576.13 1364.26 576.13 1364.26 634.07 1372.75 634.07 1372.75 591.34 1400.87 634.07 1408.68 634.07 1408.68 576.13 1400.18 576.13 1400.18 618.78 1372.06 576.13"/><rect class="cls-1" x="0.54" y="535.96" width="1414.43" height="2.01"/><rect class="cls-1" x="0.54" y="672.15" width="1414.43" height="2.01"/><path class="cls-1" d="M256.43,231.59c25-7.7,44.49-21.69,56.5-43.4a93.45,93.45,0,0,0,6.24-13.81,154.92,154.92,0,0,0,8.72-39.81C331.46,90,326,46.34,310.23,4.18a18.82,18.82,0,0,0-1.66-3.5h-8.83c10.53,39.51,12.51,79.85,11.49,120.48-.42,16.49-2.35,32.78-8.21,48.39a81.42,81.42,0,0,1-10,18.64c-16.14,22.71-43.25,37.57-69.27,36a105.35,105.35,0,0,1,7.45-36c.13-.32.25-.65.38-1,3.44-8.64,3.46-16.91-.47-25.51-7.21-15.76-13.89-31.77-20.89-47.64a83.6,83.6,0,0,0-4.33-7.58c-2.35,1.43-4.79,3.43-5.19,3.08-9.32-8-8.62,2.53-10.28,6C184.11,129,179.1,143,172.51,156.19c-5.32,10.68-7.23,20.77-2.36,32,.08.17.15.34.23.52,2.67,5.91,3.83,12.49,5.82,19.32-1.85-.24-2.4-.16-2.71-.39a42.45,42.45,0,0,1-3.82-3,149.68,149.68,0,0,1-15.74-16.44c-21-25.62-30.86-56.06-30.85-90.93,0-21.81,11.4-34.54,30.18-43a306.35,306.35,0,0,0,31.8-16.68c11.92-7.12,17.35-22,14.19-36.92-13.94,0-27.93,0-41.93,0q-15.06,0-30.13.23c-1.66,0-4.4,3.16-4.72,5.15-3.24,20.53-8.08,41.07-8.64,61.71-1.21,45.27,10.5,85.69,36.1,120.42a205,205,0,0,0,24.23,27.29c2.34,2.22,2.94,6.25,4.89,10.66-6-.56-9.67-.78-13.32-1.27-27.56-3.63-50.2-14.62-64.52-36.68a86.58,86.58,0,0,1-7.52-14.52A125,125,0,0,1,85,137.44C81.12,91.38,83.91,45.66,95.14.68H86.41c-.21.49-.43,1.08-.7,1.76C67.91,49,62.25,97.08,68.18,146.44c1.89,15.75,6.39,29.73,13.26,41.75,13.25,23.15,35.35,39,64.75,45.87,10.27,2.41,20.86,3.43,31.28,5.09,1.92,28.14-13.19,51.66-45.07,48.21-6.52-.7-9.38,2.82-9.27,10.29.21,13.18,12.61,29.41,25.53,32.13a17.6,17.6,0,0,0,12.16-2.1c17.55-11.53,29.49-27.82,37.62-47,.74-1.75,1.45-3.52,2.31-5.63,7.8,22.55,20.86,40.34,39.95,53.57,2,1.39,4.55,2.79,6.84,2.79,15.29-.07,33-21.2,30.46-36.26-.84-5.11-3.05-8.48-9.29-7.59-4.07.58-8.31.2-12.47,0-17.64-.68-35.41-20.75-31.44-44.36,4.54.87,9.12,1.59,13.61,2.66,21.08,5,41.69,11.14,58.5,25.71,14.37,12.43,19.16,28.5,11.51,44.15-4.36,8.95-11.63,16.49-17.78,24.51-1.28,1.67-3.41,2.7-5.14,4,4.77,1.52,8.47,1.13,12.07,1.6,6.58.89,10.58-2,14.28-7.21,20.81-29.63,14-67.41-16.74-86.6-9.1-5.69-19.6-9.24-29.61-13.36-4.85-2-10.07-3-15.78-4.72a22.68,22.68,0,0,1,2.06-1C253.32,232.49,254.89,232.06,256.43,231.59Zm0,0c25-7.7,44.49-21.69,56.5-43.4a93.45,93.45,0,0,0,6.24-13.81,154.92,154.92,0,0,0,8.72-39.81C331.46,90,326,46.34,310.23,4.18a18.82,18.82,0,0,0-1.66-3.5H247l7.47,0,7.42,0q7.42,0,14.81.08a5.7,5.7,0,0,1,4.25,3.11c1.57,5.44,3,10.92,4.19,16.47q.45,2.07.87,4.17c.21,1,.41,2.09.6,3.13s.39,2.1.57,3.15.35,2.09.53,3.15.33,2.1.48,3.15c.64,4.33,1.15,8.7,1.55,13.06.12,1.3.23,2.6.32,3.9.07.94.13,1.88.2,2.82s.12,2,.16,3c.05.81.08,1.62.11,2.42,0,.21,0,.41,0,.62.05,1.16.08,2.32.1,3.49,0,.19,0,.39,0,.58,0,1.35,0,2.68,0,4s0,2.71,0,4.07c0,.34,0,.7,0,1-.05,2.37-.14,4.75-.27,7.12-.07,1.29-.16,2.57-.25,3.86s-.19,2.56-.31,3.83c-.14,1.59-.3,3.18-.48,4.76q-.15,1.35-.33,2.7c0,.38-.09.74-.14,1.1-.13,1.06-.28,2.1-.44,3.15-.25,1.74-.52,3.48-.83,5.21-.14.82-.29,1.65-.44,2.47s-.37,1.93-.56,2.9l-.36,1.8c-.48,2.26-1,4.53-1.55,6.79q-.28,1.19-.6,2.37c-.2.79-.41,1.58-.62,2.37l-.66,2.36q-1.86,6.48-4.16,12.84c-.36,1-.73,2-1.09,3-.47,1.22-.94,2.42-1.43,3.63-1,2.4-2,4.8-3.09,7.18l-.82,1.78c-.32.7-.64,1.39-1,2.07l-.62,1.29c-.33.65-.64,1.29-1,1.93s-.59,1.18-.9,1.76c-1.15,2.23-2.34,4.42-3.6,6.61-.39.69-.79,1.37-1.19,2-.51.86-1,1.72-1.54,2.57s-1.05,1.7-1.59,2.54c-.35.57-.72,1.14-1.08,1.69l-1.1,1.68c-.37.56-.74,1.12-1.12,1.66s-.76,1.12-1.15,1.67l-1.16,1.65c-.37.52-.74,1-1.12,1.54a.36.36,0,0,1-.07.1c-.88,1.21-1.78,2.42-2.69,3.6l-1.18,1.52q-1.4,1.77-2.83,3.5c-.33.42-.68.83-1,1.24s-.74.89-1.12,1.32-1,1.14-1.48,1.71q-.33.39-.69.78c-.48.56-1,1.11-1.49,1.66-1,1.1-2,2.2-3,3.28l-1,1c-1.32,1.37-2.66,2.72-4,4.06-.45.44-.91.89-1.38,1.33s-1.1,1.06-1.65,1.57c-.82.77-1.77,1.4-2.66,2.1-.62-.42-1.26-.82-1.89-1.24,1.56-2.61,2.57-5.88,4.77-7.73q5.61-4.71,10.61-9.76c.51-.5,1-1,1.48-1.51s.82-.85,1.21-1.28.66-.69,1-1.05.88-.95,1.3-1.41c.7-.78,1.39-1.56,2.05-2.35s1.35-1.58,2-2.37l1.63-2,.78-1c.69-.91,1.38-1.82,2.05-2.74.4-.52.78-1.06,1.15-1.6s.86-1.2,1.27-1.81.77-1.11,1.13-1.68a.24.24,0,0,0,.06-.08c.39-.56.76-1.14,1.11-1.71s.84-1.31,1.25-2c.25-.4.49-.78.72-1.18.45-.75.9-1.51,1.33-2.27.21-.36.42-.72.61-1.08s.57-1,.84-1.51a1.09,1.09,0,0,0,.08-.15c.33-.6.65-1.2.95-1.79s.56-1.07.82-1.61c.45-.88.88-1.76,1.31-2.65s.87-1.84,1.27-2.77c.29-.6.55-1.22.82-1.85a.61.61,0,0,1,.05-.12c.3-.69.59-1.39.86-2.08l.32-.78c.27-.66.53-1.33.79-2q1-2.7,1.94-5.46c.14-.43.28-.85.41-1.29q.41-1.19.75-2.4c.27-.89.54-1.79.79-2.71.84-3,1.59-6.14,2.24-9.28.22-1,.41-2.08.6-3.12s.38-2.1.55-3.16a162.17,162.17,0,0,0,1.78-32.51c-.82-19.66-13.77-30-30.33-37.78-12.72-5.93-25-13-37.06-20.07-2.66-1.56-4.86-5.21-5.67-8.31-2-7.75-3.11-15.74-4.81-24.94h-3.36c-13.94,0-27.93,0-41.93,0H86.41c-.21.49-.43,1.08-.7,1.76C67.91,49,62.25,97.08,68.18,146.44c1.89,15.75,6.39,29.73,13.26,41.75,13.25,23.15,35.35,39,64.75,45.87,10.27,2.41,20.86,3.43,31.28,5.09,1.92,28.14-13.19,51.66-45.07,48.21-6.52-.7-9.38,2.82-9.27,10.29.21,13.18,12.61,29.41,25.53,32.13a17.6,17.6,0,0,0,12.16-2.1c17.55-11.53,29.49-27.82,37.62-47,.74-1.75,1.45-3.52,2.31-5.63,7.8,22.55,20.86,40.34,39.95,53.57,2,1.39,4.55,2.79,6.84,2.79,15.29-.07,33-21.2,30.46-36.26-.84-5.11-3.05-8.48-9.29-7.59-4.07.58-8.31.2-12.47,0-17.64-.68-35.41-20.75-31.44-44.36,4.54.87,9.12,1.59,13.61,2.66,21.08,5,41.69,11.14,58.5,25.71,14.37,12.43,19.16,28.5,11.51,44.15-4.36,8.95-11.63,16.49-17.78,24.51-1.28,1.67-3.41,2.7-5.14,4,4.77,1.52,8.47,1.13,12.07,1.6,6.58.89,10.58-2,14.28-7.21,20.81-29.63,14-67.41-16.74-86.6-9.1-5.69-19.6-9.24-29.61-13.36-4.85-2-10.07-3-15.78-4.72a22.68,22.68,0,0,1,2.06-1C253.32,232.49,254.89,232.06,256.43,231.59ZM140.49,97c13.08-5.69,29.28,0,38.56,13.54C167.17,114.31,149,107.93,140.49,97Zm7.75-10.21c-4.61-.36-9.05-2.84-13.57-4.35l.63-2.36c9.55.53,19.23.32,28.64,1.81,11.87,1.86,17.36,8,18.46,19.37C173.37,90.47,161.29,87.79,148.24,86.76Zm74.24,23.7C233,97.54,245.57,92.25,261.51,96,256.94,106.39,236.15,114.28,222.48,110.46Zm7.69-25.68c7.7-2.59,16.08-3.3,24.23-4.39,4-.54,8.14-.09,12.23-.09.18.83.37,1.66.56,2.49-4.65,1.41-9.22,3.72-13.95,4.07-12.58,1-24.14,3.75-32.89,14.34C219.43,93.53,222.36,87.41,230.17,84.78Zm-21.38-8c0,1,0,2,0,3-2.71,1.86-5.3,5-8.18,5.28-4.34.47-8-2.87-6.79-7.37.75-2.72,4.51-6.18,7.15-6.39C203.39,71.11,206.16,74.76,208.79,76.73ZM251,469.88c-.59.12-1.21.19-1.83.27.63-.06,1.26-.14,1.84-.25Z"/><path class="cls-1" d="M308.57.68a18.82,18.82,0,0,1,1.66,3.5C326,46.34,331.46,90,327.89,134.57a154.92,154.92,0,0,1-8.72,39.81,93.45,93.45,0,0,1-6.24,13.81c-12,21.71-31.54,35.7-56.5,43.4-1.54.47-3.11.9-4.65,1.38a22.68,22.68,0,0,0-2.06,1c5.71,1.67,10.93,2.73,15.78,4.72,10,4.12,20.51,7.67,29.61,13.36,30.7,19.19,37.55,57,16.74,86.6-3.7,5.25-7.7,8.1-14.28,7.21-3.6-.47-7.3-.08-12.07-1.6,1.73-1.33,3.86-2.36,5.14-4,6.15-8,13.42-15.56,17.78-24.51,7.65-15.65,2.86-31.72-11.51-44.15-16.81-14.57-37.42-20.75-58.5-25.71-4.49-1.07-9.07-1.79-13.61-2.66-4,23.61,13.8,43.68,31.44,44.36,4.16.16,8.4.54,12.47,0,6.24-.89,8.45,2.48,9.29,7.59,2.49,15.06-15.17,36.19-30.46,36.26-2.29,0-4.85-1.4-6.84-2.79-19.09-13.23-32.15-31-39.95-53.57-.86,2.11-1.57,3.88-2.31,5.63-8.13,19.21-20.07,35.5-37.62,47a17.6,17.6,0,0,1-12.16,2.1c-12.92-2.72-25.32-18.95-25.53-32.13-.11-7.47,2.75-11,9.27-10.29,31.88,3.45,47-20.07,45.07-48.21-10.42-1.66-21-2.68-31.28-5.09-29.4-6.9-51.5-22.72-64.75-45.87-6.87-12-11.37-26-13.26-41.75C62.25,97.08,67.91,49,85.71,2.44c.27-.68.49-1.27.7-1.76H0v527a3.76,3.76,0,0,0,.56.08H393.48V.68ZM69,456.46c-1,15.74-4.33,31.34-6.66,47.06-10.61-2-15.59-8.62-13.41-16.49,1.79-6.43,5-12.44,7-18.83,3.76-12.33,5.8-24.94,1.45-37.52-1.06-3.05-4.57-7.86-6.18-7.58-3.79.69-8.76,3.19-10.24,6.35A68.85,68.85,0,0,0,35,450.69C33.43,465.4,32.94,480.24,32,495c-.13,2-.34,4-.59,6.69-5-2.51-9.13-4.4-9-10.56.29-23.16.28-46.32.63-69.47.05-2.93,1.54-5.84,2.37-8.75l10.29,3.58c-.55.41.3,0,.82-.65,8.3-10.63,15.18-10.46,22.78.8C67.35,428.69,69.88,442.57,69,456.46Zm304.83-55.77c-4.83.29-6.91,3.61-6.11,8.86,1.24,8.12,1.91,16.34,2.93,25.39-5-1.23-8.57-2.29-12.19-2.92-7.63-1.31-14.95,5.54-13.94,13.22.78,5.9,5.91,5.25,9.83,5.15,5.78-.15,6.84,2.73,7,7.69.27,7.07-5.19,5.94-9,6.8-8.51,1.9-11.47,4.63-10.49,13.14.4,3.49,3.4,7.62,6.42,9.56,2,1.29,7.26.28,9.17-1.62,5-5,9.15-10.91,13.35-16.66,2-2.7,3.31-5.86,4.94-8.81l2,.33c-.5,9.32-.39,18.73-1.84,27.9-.5,3.09-4.55,6.38-7.76,8.15-9.53,5.27-22.74,2.63-31.51-5.55-7.64-7.14-10.46-20.76-5.35-30.82,3.12-6.16,3.81-11.53,1.93-18.34-3.82-13.78,1.75-22.34,16.25-27.59,2.12-.77,4.66-1.41,6-3,2.54-2.85.4-7.74-3.58-8q-20.81-1.41-41.63-2.07c-1.45,0-4.26,2.37-4.26,3.66-.08,25.71.14,51.42.39,77.13,0,1.54.81,3.07,1.67,6.17,8.41-9,3.34-19.85,6.61-28.56,6.15,1.83,11.34,8.12,10.74,14-.95,9.22-4.37,17.54-11.23,24-5,4.71-9.92,4.68-13.38-1.16-3-5-5.6-11-5.82-16.68-.95-24.3-1-48.63-1.28-72.95,0-3.44.13-6.44-4.85-6.37-4.08.05-5.89,1.24-5.81,5.56.19,10.12.06,20.25.06,31.35-7-2-12.81-4-18.77-5.45q-13.54-3.28-16.1,10.31c-.37,2-.12,5.23,1.11,6.07,1.41,1,4.37.38,6.39-.31,2.59-.89,4.9-2.59,7.37-3.87,9.08-4.72,14-3.16,18.35,6.17,6.82,14.53,5.18,28.36-3.94,41.4-1.86,2.64-4.06,5-5,6.23,3,7,6.36,13,7.95,19.37.62,2.46-2.75,5.9-4.31,8.9a93.29,93.29,0,0,1-9.57-5.28c-1.1-.77-1.55-2.86-1.78-4.42C263.3,507,258.68,500.21,249,496c-8.84-3.82-10.71-17.44-4.22-24.53.8-.87,2.29-1.09,3.85-1.26l.63-.07c.62-.08,1.24-.15,1.83-.27-7.26-10.85-11.63-22.6-10.28-35.83a44,44,0,0,1,3.33-13.35c4.24-9.51,12.74-13.3,22.75-10.45,3.42,1,5.94.57,5.84-3.08-.06-1.95-2.4-5.46-3.78-5.49-19-.51-38-.77-57-.52-6.65.09-4.84,5.07-3.93,9.61,2.39-.34,4.41-.61,6.42-.92,11-1.68,16.55,1.35,18.7,12.29,1.81,9.24,2.26,18.82,2.54,28.28.41,15,.21,30.12.17,45.18a29.85,29.85,0,0,1-.92,5.29c-.75.12-1.44.39-1.58.22-5.39-6.56-11-6.39-18.55-2.74-9.28,4.52-17.23.41-20.75-9.72-2-5.81-2.8-12-4-17.41-3.28,7.16-6.25,15.17-10.48,22.45-5.2,8.94-8.12,8.61-13.1-.39-1.13-2-1.94-4.21-3-6.26-2.34-4.48-2.15-7.1,3-10.46,13.47-8.82,19.32-22.4,18-38.2-.34-4.06-4.72-9.14-8.56-11-1.95-.92-8.48,3.63-10.06,7-3.45,7.46-5,15.79-7.47,23.71-.56,1.81-1.77,4.74-2.81,4.8-2,.13-5-.91-5.93-2.46-2-3.15-3.86-6.94-3.94-10.52-.09-5,1.59-10,2.38-15,.83-5.27-1.44-7.36-6.05-4.89a17.35,17.35,0,0,0-7.13,7.12c-7,14.43-5.3,28.72,1.77,42.7,2.71,5.37,5.42,10.74,7.89,16.22.87,1.95,1,4.22,1.84,8.12-10.38-5.57-15.89-13.12-20.25-21.54-10.28-19.87-11.79-40.2-2.38-60.88,6.1-13.38,13.14-18.19,26.6-7.28,7,5.7,13.23,3.53,15.88-4.58,1.7-5.21.16-8.2-5.41-8.5-9.24-.52-18.5-1.1-27.74-1.19-12.75-.11-25.5.17-38.24.35-7.53.1-8.55,1.63-6.44,9.4.41.2.84.6,1.22.55,16.67-2.25,24.21,2.48,25.11,19.18,1.18,21.66.31,43.44.17,65.17,0,1.32-1,3.4-2.07,3.75s-3.28-.5-4.06-1.54c-3.22-4.27-6-2.61-9.39-.18-7.53,5.37-15,4.44-21.1-2.2C64.8,480.09,70,446.93,87.53,437.6c2.56-1.37,6.21-1,9.34-.88,2.17,0,4.32,1,6.59,1.54.47-9.43-3.31-12.17-11.17-8.7-2.74,1.22-5.34,2.79-8,4.2-2.36,1.27-4.71,2.55-7.63,4.15,0-9.57-.11-18.05,0-26.54C76.88,401,77,401,66.26,401q-20.49-.08-41-.2c-3.92,0-8.25.64-7.48-5.82.58-4.86-1-10.25,7.34-10,13.42.4,26.87-.38,40.31-.41q109.15-.23,218.31-.33h9.92V349c13,9.53,12,22.08,12.3,35.34,14.7,0,29,.07,43.24,0,7.4-.05,14.82-.31,22.23-.65,5.36-.26,8.31,1.92,8.68,7.44C380.42,395.91,380.94,400.26,373.83,400.69Z"/><path class="cls-2" d="M373.83,400.69c7.11-.43,6.59-4.78,6.27-9.6-.37-5.52-3.32-7.7-8.68-7.44-7.41.34-14.83.6-22.23.65-14.27.11-28.54,0-43.24,0-.26-13.26.74-25.81-12.3-35.34v35.2h-9.92q-109.16.14-218.31.33c-13.44,0-26.89.81-40.31.41-8.38-.25-6.76,5.14-7.34,10-.77,6.46,3.56,5.8,7.48,5.82q20.51.14,41,.2c10.71,0,10.62,0,10.44,10.4-.14,8.49,0,17,0,26.54,2.92-1.6,5.27-2.88,7.63-4.15,2.65-1.41,5.25-3,8-4.2,7.86-3.47,11.64-.73,11.17,8.7-2.27-.57-4.42-1.49-6.59-1.54-3.13-.09-6.78-.49-9.34.88-17.5,9.33-22.73,42.49-9.26,57.13,6.12,6.64,13.57,7.57,21.1,2.2,3.39-2.43,6.17-4.09,9.39.18.78,1,3,1.91,4.06,1.54s2.06-2.43,2.07-3.75c.14-21.73,1-43.51-.17-65.17-.9-16.7-8.44-21.43-25.11-19.18-.38.05-.81-.35-1.22-.55-2.11-7.77-1.09-9.3,6.44-9.4,12.74-.18,25.49-.46,38.24-.35,9.24.09,18.5.67,27.74,1.19,5.57.3,7.11,3.29,5.41,8.5-2.65,8.11-8.84,10.28-15.88,4.58-13.46-10.91-20.5-6.1-26.6,7.28-9.41,20.68-7.9,41,2.38,60.88,4.36,8.42,9.87,16,20.25,21.54-.85-3.9-1-6.17-1.84-8.12-2.47-5.48-5.18-10.85-7.89-16.22-7.07-14-8.79-28.27-1.77-42.7a17.35,17.35,0,0,1,7.13-7.12c4.61-2.47,6.88-.38,6.05,4.89-.79,5-2.47,10-2.38,15,.08,3.58,2,7.37,3.94,10.52,1,1.55,3.94,2.59,5.93,2.46,1-.06,2.25-3,2.81-4.8,2.49-7.92,4-16.25,7.47-23.71,1.58-3.41,8.11-8,10.06-7,3.84,1.82,8.22,6.9,8.56,11,1.32,15.8-4.53,29.38-18,38.2-5.13,3.36-5.32,6-3,10.46,1.07,2,1.88,4.24,3,6.26,5,9,7.9,9.33,13.1.39,4.23-7.28,7.2-15.29,10.48-22.45,1.19,5.36,2,11.6,4,17.41,3.52,10.13,11.47,14.24,20.75,9.72,7.51-3.65,13.16-3.82,18.55,2.74.14.17.83-.1,1.58-.22a29.85,29.85,0,0,0,.92-5.29c0-15.06.24-30.14-.17-45.18-.28-9.46-.73-19-2.54-28.28-2.15-10.94-7.7-14-18.7-12.29-2,.31-4,.58-6.42.92-.91-4.54-2.72-9.52,3.93-9.61,19-.25,38,0,57,.52,1.38,0,3.72,3.54,3.78,5.49.1,3.65-2.42,4.05-5.84,3.08-10-2.85-18.51.94-22.75,10.45a44,44,0,0,0-3.33,13.35c-1.35,13.23,3,25,10.28,35.83-.78.16-1.63.24-2.46.34-1.56.17-3.05.39-3.85,1.26-6.49,7.09-4.62,20.71,4.22,24.53,9.73,4.2,14.35,11,15.84,20.83.23,1.56.68,3.65,1.78,4.42a93.29,93.29,0,0,0,9.57,5.28c1.56-3,4.93-6.44,4.31-8.9-1.59-6.4-4.94-12.37-7.95-19.37,1-1.2,3.16-3.59,5-6.23,9.12-13,10.76-26.87,3.94-41.4-4.38-9.33-9.27-10.89-18.35-6.17-2.47,1.28-4.78,3-7.37,3.87-2,.69-5,1.29-6.39.31-1.23-.84-1.48-4.09-1.11-6.07q2.53-13.57,16.1-10.31c6,1.44,11.8,3.41,18.77,5.45,0-11.1.13-21.23-.06-31.35-.08-4.32,1.73-5.51,5.81-5.56,5-.07,4.81,2.93,4.85,6.37.3,24.32.33,48.65,1.28,72.95.22,5.66,2.85,11.68,5.82,16.68,3.46,5.84,8.41,5.87,13.38,1.16,6.86-6.49,10.28-14.81,11.23-24,.6-5.9-4.59-12.19-10.74-14-3.27,8.71,1.8,19.53-6.61,28.56-.86-3.1-1.65-4.63-1.67-6.17-.25-25.71-.47-51.42-.39-77.13,0-1.29,2.81-3.7,4.26-3.66q20.82.63,41.63,2.07c4,.27,6.12,5.16,3.58,8-1.38,1.56-3.92,2.2-6,3-14.5,5.25-20.07,13.81-16.25,27.59,1.88,6.81,1.19,12.18-1.93,18.34-5.11,10.06-2.29,23.68,5.35,30.82,8.77,8.18,22,10.82,31.51,5.55,3.21-1.77,7.26-5.06,7.76-8.15,1.45-9.17,1.34-18.58,1.84-27.9l-2-.33c-1.63,2.95-3,6.11-4.94,8.81-4.2,5.75-8.33,11.68-13.35,16.66-1.91,1.9-7.16,2.91-9.17,1.62-3-1.94-6-6.07-6.42-9.56-1-8.51,2-11.24,10.49-13.14,3.84-.86,9.3.27,9-6.8-.2-5-1.26-7.84-7-7.69-3.92.1-9.05.75-9.83-5.15-1-7.68,6.31-14.53,13.94-13.22,3.62.63,7.16,1.69,12.19,2.92-1-9.05-1.69-17.27-2.93-25.39C366.92,404.3,369,401,373.83,400.69ZM101.08,471.36c-4.14,4.52-9.25,8.86-14.82,11.14s-8.46-1-8.23-7.19c.34-8.91,4.72-16.05,11.35-18.1,5.31-1.65,10.82-.92,13.45,3.88C104.19,463.57,103.14,469.13,101.08,471.36Zm121.18-.79c-3.75,6.88-9.22,11.4-16.73,12.89-4.9-.69-8.46-2.46-8-7.9a23.28,23.28,0,0,1,10.22-18.05c4.82-3.32,9.46-2.76,13.85,1.23C225.8,462.57,224.52,466.44,222.26,470.57Zm-10.49-40.75c8-4,11.16-2,12.09,7.71-17.29-4-22.38,1.31-32.83,24.71,0-5.83,0-10.41,0-15,.11-11.29-1.57-21.89-8.5-31.5-2.43-3.36-2.45-8.48-3.57-12.79,5.35-.58,10.68-1.44,16-1.49,1,0,2.84,3.3,2.82,5.06-.08,6-.87,12-1.3,17.94-.29,4.1-.45,8.21-.76,14C201.91,435.16,206.75,432.31,211.77,429.82Zm55.81,35.91c3-2.72,7.19-5.45,10-1.28,1.53,2.25.62,7.4-.95,10.27-4.3,7.88-13.36,8.47-19.44,1.85-1.94-2.11-3.78-4.31-5.67-6.46C257.68,471.71,262.89,469.94,267.58,465.73Z"/><path d="M256.43,231.59c25-7.7,44.49-21.69,56.5-43.4a93.45,93.45,0,0,0,6.24-13.81,154.92,154.92,0,0,0,8.72-39.81C331.46,90,326,46.34,310.23,4.18a18.82,18.82,0,0,0-1.66-3.5h-8.83c10.53,39.51,12.51,79.85,11.49,120.48-.42,16.49-2.35,32.78-8.21,48.39a81.42,81.42,0,0,1-10,18.64c-16.14,22.71-43.25,37.57-69.27,36a105.35,105.35,0,0,1,7.45-36c.13-.32.25-.65.38-1,3.44-8.64,3.46-16.91-.47-25.51-7.21-15.76-13.89-31.77-20.89-47.64a83.6,83.6,0,0,0-4.33-7.58c-2.35,1.43-4.79,3.43-5.19,3.08-9.32-8-8.62,2.53-10.28,6C184.11,129,179.1,143,172.51,156.19c-5.32,10.68-7.23,20.77-2.36,32,.08.17.15.34.23.52,2.67,5.91,3.83,12.49,5.82,19.32-1.85-.24-2.4-.16-2.71-.39a42.45,42.45,0,0,1-3.82-3,149.68,149.68,0,0,1-15.74-16.44c-21-25.62-30.86-56.06-30.85-90.93,0-21.81,11.4-34.54,30.18-43a306.35,306.35,0,0,0,31.8-16.68c11.92-7.12,17.35-22,14.19-36.92-13.94,0-27.93,0-41.93,0q-15.06,0-30.13.23c-1.66,0-4.4,3.16-4.72,5.15-3.24,20.53-8.08,41.07-8.64,61.71-1.21,45.27,10.5,85.69,36.1,120.42a205,205,0,0,0,24.23,27.29c2.34,2.22,2.94,6.25,4.89,10.66-6-.56-9.67-.78-13.32-1.27-27.56-3.63-50.2-14.62-64.52-36.68a86.58,86.58,0,0,1-7.52-14.52A125,125,0,0,1,85,137.44C81.12,91.38,83.91,45.66,95.14.68H86.41c-.21.49-.43,1.08-.7,1.76C67.91,49,62.25,97.08,68.18,146.44c1.89,15.75,6.39,29.73,13.26,41.75,13.25,23.15,35.35,39,64.75,45.87,10.27,2.41,20.86,3.43,31.28,5.09,1.92,28.14-13.19,51.66-45.07,48.21-6.52-.7-9.38,2.82-9.27,10.29.21,13.18,12.61,29.41,25.53,32.13a17.6,17.6,0,0,0,12.16-2.1c17.55-11.53,29.49-27.82,37.62-47,.74-1.75,1.45-3.52,2.31-5.63,7.8,22.55,20.86,40.34,39.95,53.57,2,1.39,4.55,2.79,6.84,2.79,15.29-.07,33-21.2,30.46-36.26-.84-5.11-3.05-8.48-9.29-7.59-4.07.58-8.31.2-12.47,0-17.64-.68-35.41-20.75-31.44-44.36,4.54.87,9.12,1.59,13.61,2.66,21.08,5,41.69,11.14,58.5,25.71,14.37,12.43,19.16,28.5,11.51,44.15-4.36,8.95-11.63,16.49-17.78,24.51-1.28,1.67-3.41,2.7-5.14,4,4.77,1.52,8.47,1.13,12.07,1.6,6.58.89,10.58-2,14.28-7.21,20.81-29.63,14-67.41-16.74-86.6-9.1-5.69-19.6-9.24-29.61-13.36-4.85-2-10.07-3-15.78-4.72a22.68,22.68,0,0,1,2.06-1C253.32,232.49,254.89,232.06,256.43,231.59Zm9.33,62.72c-2-.23-4.08-.5-6.14-.72-19.21-2-31.73-12.26-36.61-30.89-5.74-21.89-7.09-43.76,2.19-65.32a39,39,0,0,0,2.71-9.19c2-12.32-2.43-23.93-7.7-35.33l-2,.09v26.26l-1.65.1q-6-26-12.05-52l-1.76.16c-.36,4.32-1.05,8.64-1,13,0,15.92.06,31.83.17,47.75q.09,14.72.32,29.39c.23,14.83,1.82,29.64,1.56,44.44-.4,24.37,14.54,39.63,30.83,54,7.94,7,14.47,6.92,22.18,1.88C264.22,313.06,267.92,303.41,265.76,294.31Zm-67-166.93-2.05-.2-12.06,52-1.88-.16V152.62l-1.87,0c-5.06,11.49-10,23.26-7.55,35.61a33.25,33.25,0,0,0,2.31,7.32c8.24,18.7,8,37.83,4.91,57.26-3.73,23.32-15.11,36.11-34.78,39.8-3.55.67-7.2.79-12.25,1.31,1.6,6,2.23,11.65,4.57,16.45,4.38,9,16.18,13.61,23.32,8.5,18.83-13.47,35.16-29.18,35.85-54.58s1.23-50.7,1.74-76.06q.42-21.72.81-43.46C200,139,199.15,133.17,198.78,127.38Z"/><path d="M290.66,71.11c0,1.36,0,2.71,0,4.07,0,.34,0,.7,0,1-.05,2.37-.14,4.75-.27,7.12-.07,1.29-.16,2.57-.25,3.86s-.19,2.56-.31,3.83c-.14,1.59-.3,3.18-.48,4.76q-.15,1.35-.33,2.7c0,.38-.09.74-.14,1.1-.13,1.06-.28,2.1-.44,3.15-.25,1.74-.52,3.48-.83,5.21-.14.82-.29,1.65-.44,2.47s-.37,1.93-.56,2.9l-.36,1.8c-.48,2.26-1,4.53-1.55,6.79q-.28,1.19-.6,2.37c-.2.79-.41,1.58-.62,2.37l-.66,2.36q-1.86,6.48-4.16,12.84c-.36,1-.73,2-1.09,3-.47,1.22-.94,2.42-1.43,3.63-1,2.4-2,4.8-3.09,7.18l-.82,1.78c-.32.7-.64,1.39-1,2.07l-.62,1.29c-.33.65-.64,1.29-1,1.93s-.59,1.18-.9,1.76c-1.15,2.23-2.34,4.42-3.6,6.61-.39.69-.79,1.37-1.19,2-.51.86-1,1.72-1.54,2.57s-1.05,1.7-1.59,2.54c-.35.57-.72,1.14-1.08,1.69l-1.1,1.68c-.37.56-.74,1.12-1.12,1.66s-.76,1.12-1.15,1.67l-1.16,1.65c-.37.52-.74,1-1.12,1.54a.36.36,0,0,1-.07.1c-.88,1.21-1.78,2.42-2.69,3.6l-1.18,1.52q-1.4,1.77-2.83,3.5c-.33.42-.68.83-1,1.24s-.74.89-1.12,1.32-1,1.14-1.48,1.71q-.33.39-.69.78c-.48.56-1,1.11-1.49,1.66-1,1.1-2,2.2-3,3.28l-1,1c-1.32,1.37-2.66,2.72-4,4.06-.45.44-.91.89-1.38,1.33s-1.1,1.06-1.65,1.57c-.82.77-1.77,1.4-2.66,2.1-.62-.42-1.26-.82-1.89-1.24,1.56-2.61,2.57-5.88,4.77-7.73q5.61-4.71,10.61-9.76c.51-.5,1-1,1.48-1.51s.82-.85,1.21-1.28.67-.69,1-1.05.88-.95,1.3-1.41c.7-.78,1.39-1.56,2.05-2.35s1.35-1.58,2-2.37l1.63-2,.78-1c.69-.91,1.38-1.82,2.05-2.74.4-.52.78-1.06,1.15-1.6s.86-1.2,1.27-1.81.77-1.11,1.13-1.68a.24.24,0,0,0,.06-.08c.39-.56.76-1.14,1.11-1.71s.84-1.31,1.25-2c.25-.4.5-.79.72-1.18.45-.75.9-1.5,1.33-2.27.21-.36.42-.72.61-1.08s.57-1,.84-1.51a1.09,1.09,0,0,0,.08-.15c.33-.6.65-1.2.95-1.79s.56-1.07.82-1.61c.46-.88.89-1.76,1.31-2.65s.87-1.84,1.27-2.77c.29-.6.55-1.22.82-1.85a.61.61,0,0,1,.05-.12c.3-.69.59-1.39.86-2.08l.32-.78c.27-.66.53-1.33.79-2q1-2.7,1.94-5.46c.14-.43.28-.85.41-1.29q.41-1.19.75-2.4c.27-.89.54-1.79.79-2.71.84-3,1.59-6.14,2.24-9.28.22-1,.41-2.08.6-3.12s.38-2.1.55-3.16a162.17,162.17,0,0,0,1.78-32.51c-.82-19.66-13.77-30-30.33-37.78-12.72-5.93-25-13-37.06-20.07-2.66-1.56-4.86-5.21-5.67-8.31-2-7.75-3.11-15.74-4.81-24.94h0c15.3,0,29.95,0,44.35,0l7.47,0,7.42,0q7.42,0,14.81.08a5.7,5.7,0,0,1,4.25,3.11c1.57,5.44,3,10.92,4.19,16.47s2.23,11.14,3,16.75c.64,4.33,1.15,8.7,1.55,13.06.12,1.3.23,2.6.32,3.9.07.94.13,1.88.2,2.82s.12,2,.16,3c.05.81.08,1.62.11,2.42,0,.21,0,.41,0,.62.05,1.16.08,2.32.1,3.49,0,.19,0,.39,0,.58C290.65,68.43,290.66,69.76,290.66,71.11Z"/><path class="cls-2" d="M69,456.46c-1,15.74-4.33,31.34-6.66,47.06-10.61-2-15.59-8.62-13.41-16.49,1.79-6.43,5-12.44,7-18.83,3.76-12.33,5.8-24.94,1.45-37.52-1.06-3.05-4.57-7.86-6.18-7.58-3.79.69-8.76,3.19-10.24,6.35A68.85,68.85,0,0,0,35,450.69C33.43,465.4,32.94,480.24,32,495c-.13,2-.34,4-.59,6.69-5-2.51-9.13-4.4-9-10.56.29-23.16.28-46.32.63-69.47.05-2.93,1.54-5.84,2.37-8.75l10.29,3.58c-.55.41.3,0,.82-.65,8.3-10.63,15.18-10.46,22.78.8C67.35,428.69,69.88,442.57,69,456.46Z"/><path d="M222.48,110.46C233,97.54,245.57,92.25,261.51,96,256.94,106.39,236.16,114.28,222.48,110.46Z"/><path d="M179.05,110.51c-11.89,3.79-30-2.58-38.56-13.53C153.56,91.28,169.77,97,179.05,110.51Z"/><path d="M182.41,101.23c-9-10.76-21.12-13.45-34.17-14.47-4.61-.36-9.05-2.84-13.58-4.35l.64-2.36c9.56.54,19.23.32,28.64,1.8C175.81,83.72,181.3,89.89,182.41,101.23Z"/><path d="M267.19,82.79c-4.65,1.41-9.23,3.72-13.95,4.07-12.59.94-24.14,3.75-32.89,14.34-.92-7.66,2-13.79,9.83-16.42s16.08-3.29,24.21-4.39c4-.54,8.16-.09,12.24-.09C266.82,81.13,267,82,267.19,82.79Z"/><path class="cls-1" d="M223.85,437.52c-17.29-4-22.37,1.32-32.82,24.71,0-5.82,0-10.4,0-15,.12-11.29-1.57-21.9-8.49-31.49-2.43-3.37-2.45-8.48-3.57-12.8,5.34-.58,10.68-1.44,16-1.49,1,0,2.85,3.3,2.82,5.06-.08,6-.87,12-1.3,17.95-.3,4.09-.45,8.2-.76,14,6.14-3.35,11-6.21,16-8.69C219.78,425.86,222.93,427.8,223.85,437.52Z"/><path class="cls-1" d="M205.53,483.47c-4.91-.71-8.47-2.48-8-7.9.63-7.55,4-13.75,10.22-18.06,4.81-3.31,9.46-2.76,13.86,1.23,4.21,3.83,2.93,7.7.67,11.83C218.51,477.46,213,482,205.53,483.47Z"/><path class="cls-1" d="M78,475.31c.33-8.92,4.71-16.05,11.34-18.11,5.3-1.64,10.82-.91,13.45,3.89,1.36,2.48.31,8-1.75,10.28-4.14,4.51-9.24,8.85-14.82,11.13S77.8,481.54,78,475.31Z"/><path class="cls-1" d="M251.1,470c6.33,1.79,11.68.05,16.48-4.27,3-2.71,7.2-5.44,10-1.26,1.52,2.24.62,7.39-.95,10.26-4.31,7.89-13.36,8.47-19.44,1.85-2-2.2-3.93-4.5-5.91-6.74Z"/><path class="cls-1" d="M182.79,152.63V179l1.88.16,12.06-52,2,.2c.38,5.78,1.18,11.58,1.07,17.35-.72,39.85-1.46,79.69-2.54,119.52-.69,25.4-17,41.11-35.85,54.58-7.15,5.11-18.95.51-23.33-8.5-2.33-4.8-3-10.42-4.56-16.45,5.06-.52,8.7-.64,12.25-1.31,19.67-3.69,31.05-16.48,34.78-39.81,3.1-19.42,3.33-38.54-4.92-57.25-6.64-15.06-.8-29.19,5.25-42.93Z"/><path class="cls-1" d="M204.52,127.33q6,26,12,52l1.65-.11V153l2-.09c6.56,14.19,11.8,28.7,5,44.52-9.28,21.56-7.93,43.43-2.19,65.32,4.87,18.63,17.41,28.88,36.61,30.89,2.06.22,4.12.48,6.14.72,2.17,9.1-1.54,18.75-9,23.62-7.7,5-14.24,5.13-22.18-1.88-16.29-14.41-31.23-29.67-30.82-54,.24-14.8-1.35-29.61-1.58-44.43-.39-25.71-.43-51.43-.48-77.15,0-4.31.68-8.63,1-13Z"/><circle class="cls-2" cx="201.51" cy="78.7" r="8.07"/></g></g></svg>