<svg xmlns="http://www.w3.org/2000/svg" xmlns:xlink="http://www.w3.org/1999/xlink" viewBox="0 0 1413.4 705.39"><defs><style>.cls-1{fill:none;}.cls-2,.cls-3{fill:#fff;}.cls-3{stroke:#fff;stroke-miterlimit:10;stroke-width:2px;}.cls-4{clip-path:url(#clip-path);}</style><clipPath id="clip-path" transform="translate(-0.87)"><rect class="cls-1" y="26.2" width="387.26" height="523.07"/></clipPath></defs><title>logo</title><g id="Layer_2" data-name="Layer 2"><g id="Layer_1-2" data-name="Layer 1"><path class="cls-2" d="M433.1,22.2h39.83V269H433.1Z" transform="translate(-0.87)"/><path class="cls-2" d="M640.94,161.39c0-35.29-19.21-53.45-48.2-53.45-29.35,0-48.56,18.16-48.56,53.45V269H504.36V76.5h39.82v22c12.93-15.72,34.23-25.15,57.29-25.15,45.06,0,78.95,28.29,78.95,82.09V269H640.94Z" transform="translate(-0.87)"/><path class="cls-2" d="M788,73.36c25.15,0,51.7,11.88,66.37,30V21.48h40.17V269H854.36V240c-12.23,17.47-35.28,32.14-66.72,32.14-50.65,0-90.82-40.87-90.82-100.25S737,73.36,788,73.36Zm8,34.58c-29.69,0-58.33,22.36-58.33,63.93s28.64,65.67,58.33,65.67c30,0,58.34-23.41,58.34-65C854.36,131.34,826.06,107.94,796,107.94Z" transform="translate(-0.87)"/><path class="cls-2" d="M920.72,25.5a25.33,25.33,0,1,1,50.65,0,25.33,25.33,0,1,1-50.65,0Z" transform="translate(-0.87)"/><rect class="cls-2" x="925.09" y="76.5" width="39.82" height="192.47"/><path class="cls-2" d="M1074.76,73.36c32.49,0,54.84,15.37,66.72,31.09V76.5h40.17V269h-40.17V240.33c-12.23,16.42-35.28,31.79-67.42,31.79-50,0-90.12-40.87-90.12-100.25S1024.11,73.36,1074.76,73.36Zm8.39,34.58c-29.7,0-58.34,22.36-58.34,63.93s28.64,65.67,58.34,65.67c30,0,58.33-23.41,58.33-65C1141.48,131.34,1113.18,107.94,1083.15,107.94Z" transform="translate(-0.87)"/><path class="cls-2" d="M1349.66,161.39c0-35.29-19.21-53.45-48.21-53.45-29.34,0-48.55,18.16-48.55,53.45V269h-39.82V76.5h39.82v22c12.92-15.72,34.23-25.15,57.29-25.15,45.06,0,78.94,28.29,78.94,82.09V269h-39.47Z" transform="translate(-0.87)"/><path class="cls-2" d="M432.65,302.11h43.73l86.75,193.76,86.39-193.76H692.9V549.2H652.37V380L577,549.2H548.91L473.18,380V549.2H432.65Z" transform="translate(-0.87)"/><path class="cls-2" d="M809.14,552.4c-56.18,0-97.77-39.82-97.77-101.33s39.82-101,97.77-101c55.82,0,95.28,38.76,95.28,96.35A124.55,124.55,0,0,1,903,466.36H753.32c2.85,32.35,26,51.91,55.82,51.91,24.89,0,38.75-12.09,46.22-27.38h43.73C888.07,525,857.13,552.4,809.14,552.4ZM753.67,433.65H862.11c-.71-30.22-24.53-49.42-54.75-49.42C780,384.23,757.94,402.72,753.67,433.65Z" transform="translate(-0.87)"/><path class="cls-2" d="M1001.82,350.1c33.07,0,55.82,15.65,67.91,31.65V353.3h40.89V549.2h-40.89V520.05c-12.44,16.71-35.91,32.35-68.62,32.35-50.84,0-91.72-41.6-91.72-102S950.27,350.1,1001.82,350.1Zm8.54,35.2c-30.22,0-59.38,22.76-59.38,65.06s29.16,66.84,59.38,66.84c30.57,0,59.37-23.82,59.37-66.13C1069.73,409.12,1040.93,385.3,1010.36,385.3Z" transform="translate(-0.87)"/><path class="cls-2" d="M1142.6,286.11h40.53V549.2H1142.6Z" transform="translate(-0.87)"/><path class="cls-2" d="M29.6,609.05h5.51v41.67c0,8.34-5.51,13.94-14.17,13.94-8.9,0-14.65-5.75-14.65-15h5.59c.08,5.52,2.52,10.16,9.06,10.16,6.37,0,8.66-4.49,8.66-9Z" transform="translate(-0.87)"/><path class="cls-2" d="M20.94,666.15c-9.81,0-16.15-6.49-16.15-16.54v-1.5h8.57l0,1.48c0,4,1.41,8.68,7.56,8.68s7.16-4.73,7.16-7.55V607.55h8.51v43.17C36.61,660,30.31,666.15,20.94,666.15Zm-13.1-15c.57,7.47,5.48,12,13.1,12s12.67-4.89,12.67-12.44V610.55H31.1v40.17c0,5.1-2.67,10.55-10.16,10.55-6.06,0-9.89-3.77-10.48-10.16Z" transform="translate(-0.87)"/><path class="cls-2" d="M112.37,651H87.32l-4.8,13.07H76.69l20.08-54.34H103l20,54.34h-5.83ZM99.84,616.69,89,646.46h21.73Z" transform="translate(-0.87)"/><path class="cls-2" d="M125.15,665.6h-9l-4.81-13.07H88.37L83.56,665.6h-9l21.19-57.33H104Zm-6.93-3h2.63L102,611.26H97.82l-19,51.35h2.63l4.81-13.08h27.13ZM112.85,648h-26l13-35.64Zm-21.73-3h17.45l-8.73-23.9Z" transform="translate(-0.87)"/><path class="cls-2" d="M204.82,609.05V664.1H199.3l-30.47-46.3v46.3h-5.52V609.05h5.52l30.47,46.23V609.05Z" transform="translate(-0.87)"/><path class="cls-2" d="M206.31,665.6H198.5l-28.18-42.8v42.8h-8.5V607.55h7.81l28.18,42.74V607.55h8.5Zm-6.2-3h3.21V610.55H200.8v49.73L168,610.55h-3.21v52.06h2.52V612.8Z" transform="translate(-0.87)"/><path class="cls-2" d="M245,626.07l4.57-17h6.37l-6.93,17Z" transform="translate(-0.87)"/><path class="cls-2" d="M250,627.56h-7l5.38-20h9.75Zm-3.07-3H248l5.71-14h-3Z" transform="translate(-0.87)"/><path class="cls-2" d="M312.54,664.66c-11,0-18.27-6.3-18.58-14.73h5.83c.47,4.57,3.85,10.08,12.75,10.08,7.64,0,12.13-4.49,12.13-10.16,0-16.22-30.24-6-30.24-26.7,0-8.5,7-14.73,17.64-14.73s16.78,5.83,17.72,13.39h-6c-.63-3.86-4.33-8.58-12-8.66-6.46-.08-11.82,3.46-11.82,9.84,0,15.91,30.24,6.15,30.24,26.62C330.26,657.1,324.2,664.66,312.54,664.66Z" transform="translate(-0.87)"/><path class="cls-2" d="M312.54,666.15c-11.46,0-19.72-6.65-20.08-16.17l-.06-1.55h8.74l.14,1.34c.21,2.05,1.65,8.74,11.26,8.74,6.36,0,10.63-3.48,10.63-8.66,0-6.16-4.8-7.75-12.63-9.85s-17.61-4.71-17.61-16.85c0-9.55,7.87-16.22,19.14-16.22,10.55,0,18.09,5.77,19.21,14.7l.21,1.68h-9l-.2-1.26c-.45-2.71-3.16-7.33-10.51-7.4a11.18,11.18,0,0,0-8.09,2.8,7.46,7.46,0,0,0-2.21,5.54c0,6,4.78,7.62,12.59,9.76s17.65,4.84,17.65,16.86C331.76,657.83,325.16,666.15,312.54,666.15ZM295.6,651.43c1.08,7.08,7.68,11.73,16.94,11.73,10.65,0,16.23-6.82,16.23-13.55,0-9.74-7.51-11.79-15.45-14-7.28-2-14.8-4-14.8-12.65a10.5,10.5,0,0,1,3.1-7.67,14,14,0,0,1,10-3.67h.23c7.41.08,11.83,4.34,13.14,8.66h3c-1.6-6.45-7.54-10.39-15.92-10.39-9.5,0-16.14,5.44-16.14,13.23,0,9.84,7.47,11.84,15.39,14,7.3,1.95,14.85,4,14.85,12.74,0,6.86-5.6,11.66-13.63,11.66-8.83,0-13-5.17-14-10.08Z" transform="translate(-0.87)"/><path class="cls-2" d="M425.47,609.05h29.76v4.57H431v20.56h20.48v4.57H431V664.1h-5.51Z" transform="translate(-0.87)"/><path class="cls-2" d="M432.48,665.6H424V607.55h32.76v7.57H432.48v17.56H453v7.56H432.48Zm-5.51-3h2.51V637.25H450v-1.57H429.48V612.12h24.26v-1.57H427Z" transform="translate(-0.87)"/><path class="cls-2" d="M527.69,651H502.64l-4.8,13.07H492l20.08-54.34h6.23l20,54.34h-5.83Zm-12.53-34.34L504.3,646.46H526Z" transform="translate(-0.87)"/><path class="cls-2" d="M540.47,665.6h-9l-4.81-13.07H503.69l-4.81,13.07h-9l21.19-57.33h8.31Zm-6.93-3h2.63l-18.9-51.35h-4.13l-19,51.35h2.63l4.81-13.08h27.13ZM528.18,648h-26l13-35.64Zm-21.74-3h17.45l-8.73-23.9Z" transform="translate(-0.87)"/><path class="cls-2" d="M578.64,609.76h5.82l21,47.1,21-47.1h5.91V664.1h-5.52V620.71L607.54,664.1h-4l-19.37-43.23V664.1h-5.51Z" transform="translate(-0.87)"/><path class="cls-2" d="M633.93,665.6h-8.51V627.74L608.51,665.6h-6l-16.9-37.72V665.6h-8.51V608.27h8.3l20,44.91,20.06-44.91h8.38Zm-5.52-3h2.52V611.26h-3.44l-22,49.27-22-49.27h-3.35v51.35h2.51V613.86l21.84,48.75h2.08l21.84-48.93Z" transform="translate(-0.87)"/><path class="cls-2" d="M676.45,609.05H682V664.1h-5.51Z" transform="translate(-0.87)"/><path class="cls-2" d="M683.46,665.6H675V607.55h8.51Zm-5.52-3h2.52V610.55h-2.52Z" transform="translate(-0.87)"/><path class="cls-2" d="M731.49,609.05v50.57h19.76v4.48H726V609.05Z" transform="translate(-0.87)"/><path class="cls-2" d="M752.75,665.6H724.48V607.55H733v50.57h19.76Zm-25.28-3h22.29v-1.5H730V610.55h-2.52Z" transform="translate(-0.87)"/><path class="cls-2" d="M786.06,609.05h6.22l14.34,28.59,14.25-28.59H827l-17.64,33.63V664.1h-5.51V642.68Z" transform="translate(-0.87)"/><path class="cls-2" d="M810.87,665.6h-8.51V643.05l-18.79-35.5h9.64l13.4,26.74L820,607.55h9.54l-18.62,35.5Zm-5.51-3h2.51v-20.3l16.67-31.76H821.8L806.62,641l-15.26-30.44h-2.81l16.81,31.76Z" transform="translate(-0.87)"/><path class="cls-2" d="M925.13,638.67V664.1h-5.51V609.05h5.51v25.76L949,609.05h7l-25.75,27.49,26,27.56H949Z" transform="translate(-0.87)"/><path class="cls-2" d="M959.71,665.6H948.35l-21.72-23.15V665.6h-8.51V607.55h8.51V631l21.71-23.44h11.12l-27.15,29Zm-10.07-3h3.13l-24.58-26.07,24.36-26h-2.9l-24.27,26.19Zm-28.52,0h2.52V610.55h-2.52Z" transform="translate(-0.87)"/><path class="cls-2" d="M995.85,609.05h5.51V664.1h-5.51Z" transform="translate(-0.87)"/><path class="cls-2" d="M1002.86,665.6h-8.51V607.55h8.51Zm-5.51-3h2.51V610.55h-2.51Z" transform="translate(-0.87)"/><path class="cls-2" d="M1041.44,609.05h36.15v4.57h-15.28V664.1h-5.51V613.62h-15.36Z" transform="translate(-0.87)"/><path class="cls-2" d="M1063.81,665.6h-8.51V615.12h-15.36v-7.57h39.15v7.57h-15.28Zm-5.51-3h2.52V612.12h15.27v-1.57h-33.15v1.57h15.36Z" transform="translate(-0.87)"/><path class="cls-2" d="M1142.24,608.42c12.29,0,21.43,6.15,25.36,16.7h-6.46c-3.07-7.32-9.53-11.89-18.9-11.89-12,0-21.26,8.9-21.26,23.31s9.21,23.23,21.26,23.23c9.37,0,15.83-4.57,18.9-11.73h6.46c-3.93,10.39-13.07,16.54-25.36,16.54-15.28,0-26.93-11.5-26.93-28S1127,608.42,1142.24,608.42Z" transform="translate(-0.87)"/><path class="cls-2" d="M1142.24,666.07c-16.47,0-28.43-12.42-28.43-29.53s12-29.61,28.43-29.61c12.82,0,22.58,6.44,26.77,17.67l.75,2h-9.61l-.39-.92c-3-7.08-9.19-11-17.52-11-11.82,0-19.76,8.76-19.76,21.81s7.94,21.73,19.76,21.73c8.31,0,14.53-3.84,17.53-10.82l.39-.91h9.61l-.77,2C1164.79,659.69,1155,666.07,1142.24,666.07Zm0-56.15c-14.74,0-25.43,11.2-25.43,26.62s10.69,26.54,25.43,26.54c10.67,0,19-4.9,23.1-13.54h-3.23c-3.63,7.57-10.65,11.73-19.87,11.73-13.4,0-22.76-10.17-22.76-24.73s9.36-24.81,22.76-24.81c9.25,0,16.27,4.21,19.88,11.89h3.23C1161.24,614.88,1152.94,609.92,1142.24,609.92Z" transform="translate(-0.87)"/><path class="cls-2" d="M1245.4,638.35h-29.84V664.1H1210V609.05h5.52v24.73h29.84V609.05h5.52V664.1h-5.52Z" transform="translate(-0.87)"/><path class="cls-2" d="M1252.41,665.6h-8.5V639.85h-26.85V665.6h-8.52V607.55h8.52v24.73h26.85V607.55h8.5Zm-5.51-3h2.52V610.55h-2.52v24.73h-32.84V610.55h-2.52v52.06h2.52V636.85h32.84Z" transform="translate(-0.87)"/><path class="cls-2" d="M1323.76,613.54h-23.23V634.1h20.87v4.57h-20.87v20.87h23.23v4.56H1295V609h28.75Z" transform="translate(-0.87)"/><path class="cls-2" d="M1325.25,665.6h-31.74V607.48h31.74V615H1302V632.6h20.87v7.56H1302V658h23.23Zm-28.74-3h25.75V661H1299V637.17h20.87V635.6H1299V612.05h23.23v-1.58h-25.75Z" transform="translate(-0.87)"/><path class="cls-2" d="M1407.63,609.05V664.1h-5.51l-30.48-46.3v46.3h-5.51V609.05h5.51l30.48,46.23V609.05Z" transform="translate(-0.87)"/><path class="cls-2" d="M1409.13,665.6h-7.82l-28.17-42.8v42.8h-8.51V607.55h7.82l28.17,42.74V607.55h8.51Zm-6.21-3h3.21V610.55h-2.51v49.73l-32.79-49.73h-3.2v52.06h2.51V612.8Z" transform="translate(-0.87)"/><line class="cls-3" x1="8.02" y1="568.69" x2="1413.4" y2="568.69"/><line class="cls-3" x1="8.02" y1="704.39" x2="1413.4" y2="704.39"/><g class="cls-4"><image width="282" height="400" transform="translate(0 11.63) scale(1.37)" xlink:href="Namaste-2.82MB_d400.jpg"/></g></g></g></svg>