<svg xmlns="http://www.w3.org/2000/svg" viewBox="0 0 1403.15 753.03"><defs><style>.cls-1,.cls-2{fill:#fff;}.cls-2{stroke:#fff;stroke-miterlimit:10;stroke-width:2px;}</style></defs><title>mainlogoobject</title><g id="Layer_2" data-name="Layer 2"><g id="Layer_1-2" data-name="Layer 1"><path class="cls-1" d="M207.4,526.17c-.26-7.81-.42-15.63-.82-23.43-.15-2.78,0-6.22-1.47-8.19-9.64-12.65-19.79-24.91-29.57-37.46-3.91-5-6.86-3.79-10.2.49-9.8,12.56-19.87,24.92-29.46,37.64-1.5,2-1.66,5.45-1.48,8.17.45,6.74,1.46,13.44,2.24,20.16l-3.27,3.15c7,2.47,14.32,4.49,21.08,7.6,4,1.83,7.16,5.41,10.69,8.2-3.8,3.75-7,8.93-11.56,10.85-4.88,2-10.22.31-12.24-6.59a78.48,78.48,0,0,0-9.64-20.61c-3.78,11.38,6.39,22.53-1,33.86-1-4.89-1.56-10-3.29-14.63s-4.75-9-7.19-13.4l-3.67,1.17c1.2,6.05,2.06,12.19,3.67,18.13,3.17,11.68-.12,17.14-10.59,16.74-9-.34-12.22-5.29-7.89-13.14,1.85-3.35,6.16-5.45,7.69-8.86,1.75-3.91,1.66-8.64,2.37-13-3.89,1.31-8.71,1.61-11.45,4.15-4.81,4.46-8.21,10.42-12.46,15.53-6.78,8.17-9.08,7.85-15.17-2l19.69-21.18L55.12,501.69c-2.81,2.16-8.92,6-13.92,10.9-6.71,6.62-12.24,6.44-19-1.9,7.29-5.83,15-10.95,21.25-17.42,3.18-3.28,5.65-9.15,5.28-13.59-1.08-13.07,2.2-19.35,15.24-23.32,4.09-1.24,8.61-2.52,12.72-2,16.06,2,24.71-8.33,35.05-20.1-4.38,0-7.2-.37-9.89.06-34.55,5.55-57.47-12.08-74.2-39.13C3.7,356.52-.21,312.86,2.43,269A968.45,968.45,0,0,1,15.69,160.25C22.08,123.79,33.92,88.87,60,60.74c20.46-22.11,45.35-37.24,75-42.28,19.79-3.37,40.33-5.29,60.29-4,30.07,1.91,55.76,16.05,78,36.27,37.64,34.28,52.11,78.8,53.69,127.78,1.61,50.28.5,100.64,1.23,151,.24,16.45,2.53,32.88,4,50.45-5.07-.6-11-.79-16.55-2.26-1.62-.43-3.26-4.53-3.22-6.92,1-53.62,1.46-107.27,3.58-160.85,1.16-29.27-4.1-56.81-15-83.59C289.45,98.33,274.06,72.89,252.09,52,213.71,15.41,158.23,9.71,111,35.9,68.29,59.59,42.83,95.75,30.53,142.17a33.71,33.71,0,0,0-.57,4.62l2.46,1.65c2.42-3.15,5.86-5.95,7.09-9.51,16.3-47.55,48.83-78.57,95.82-95.13,5.31-1.87,11-3.21,15.72-6.11,11.36-7,21.19-4.77,32.4,1.27,12.38,6.67,26.81,9.57,39.05,16.44,19.35,10.86,34,27.39,46.42,46.21C239.56,80,211.44,55.93,171.22,53.93V94.54q0,11.5,0,23c0,25,17.93,43.83,43.21,44.67,26.89.9,48.43,10.5,61.43,35.34,1.21,2.3,3.22,4.18,5.17,6.64l11.42-3.5c1.69,2.53,3.26,5,5,7.42,3.38,4.63,3.23,8.61-2,11.68-6.12,3.6-7.65,8.82-7.7,15.85-.1,12-.75,24.05-2.93,35.77-1.53,8.24,1.71,13.76,5.24,20.28,5.64,10.38,12,20.94,14.66,32.22,2.92,12.23-1.07,23.86-14,30a9.09,9.09,0,0,0-3,2.43c-.55.68-.57,1.8-.33.95l13.23,7.93L287.46,374l11.4,1.79c-6.7,6.65-10.93,14.15-16.47,15.27-4,.82-12.39-6-13.86-10.93-1.23-4.14-1.12-9.25-3-13.95-.49-1.24,3.11-5.11,5.55-6.21s5.72-.24,12-.24l-26.26-21.52c-24.55,16.43-28.37,41.55-29.42,65,16.13,7,31.51,12.15,45.31,20.06,18,10.28,25.83,28.9,32.34,47.48,4.47,12.79,7.52,26.09,10.75,39.27.43,1.75-1.31,5-3,6a7.32,7.32,0,0,1-6.65-.12c-5.64-4.07-10.58-9.13-16.3-13.07-2-1.35-6.43-1.78-8-.49-10.5,8.5-20.52,17.57-32,27.58,5.65,6.57,12,13.91,18.32,21.26-5,9.3-8.64,9.73-14.62,1.83-4.6-6.08-8.91-12.51-14.32-17.77-2.1-2-6.89-1.3-10.46-1.83.31,3.71-.28,7.84,1.19,11s5.87,4.81,7.37,7.91c1.82,3.75,2,8.32,2.81,12.53-5.59.43-11.54,2.24-16.65.88-4.54-1.2-7.72-5.55-4.83-11.94,2.75-6.09,4-12.88,6.36-21-17.33,4.4-8.55,19.7-16.77,29.66-1.87-11.16-2.63-19.6,2.66-27.42,3.63-5.36,1.74-7.79-3.77-9ZM60.77,358c-5.71-4.44-9.5-6.67-12.32-9.78-3-3.28-6.84-7.25-7.2-11.19-1.37-15.43-.86-31,10.66-43.21,8.88-9.39,12.3-20,11-32.69-.46-4.49.92-9.17,1.46-13.77,7.23,38.36,16.12,74.67,47.73,102,4.72-13.37,8.24-25.14,13-36.39,11.45-27.16,23.85-53.94,35-81.21,2.76-6.75,7.19-6.19,11.72-5.53,3.22.47,7.8,2.55,8.87,5.12,11.75,28.14,22.88,56.54,34.3,84.82,4.67,11.58,9.62,23.05,15.06,36,4.69-4.31,8.62-7.29,11.78-10.93,24.53-28.25,35.83-61.63,37.49-98.57.33-7.29,1.94-15.64-.86-21.75-13.25-28.92-26.93-44.81-63.55-47.38-8.25-.57-17.28-3.1-24.11-7.55-9.61-6.27-17.51-15.18-26.66-23.43-.62,1.4-1.82,4.32-3.17,7.17-6.22,13.05-15.35,24.15-29.29,28-17.37,4.76-35.74,6.08-51.3,17.8,3.1-6.43,6.65-12.84,12.07-15.68,9.52-5,20-8.26,30.38-11.43C150.25,160,163,143.14,163,114.59c0-17.33-.4-34.67.17-52,.28-8.36-2.75-10.26-10.5-9.47-30.69,3.15-55,18-75.67,40-23.26,24.75-35.3,53.58-36,88.12-.59,28.61,6.15,55.28,14.62,81.91,1.55,4.87,3.66,9.32-3.72,13.09-12.32-24.57-15.78-51.22-22.6-77a6.47,6.47,0,0,0-2.08,3.45c-10,37.06-11.18,74.93-9.5,112.92,1,22.95,5.49,45.2,15,66.58,15.12,33.9,38.93,47.86,75.37,42.24,7.67-1.18,12.17-4,9.87-13.15-4.1-16.38-6.4-33.28-11.55-49.29-2.62-8.13-9.73-14.86-15-22.05-.74-1-3.56-1.87-4.22-1.33-6.92,5.65-13.59,11.6-21,18.06,2.36.81,3.25,1.06,4.11,1.42,3.37,1.43,6.72,2.89,10.08,4.34-1.61,2.9-3.42,5.7-4.76,8.72A26.25,26.25,0,0,0,74,377.53c-1.19,7.08-10.28,14.54-15.44,12.61C55,388.79,42.2,366.68,43.8,363.29c1.07-2.29,4-4.19,6.56-5.15C52.6,357.29,55.42,358,60.77,358Zm116-86.41-3.2,1c0,3.58,0,7.15,0,10.72.55,49.94,1.28,99.89,1.48,149.83,0,8.95,2.61,16.21,8.36,22.63,12.6,14.08,25.15,28.21,38.06,42,1.56,1.67,5.75,2.72,7.73,1.83,7.48-3.35,15.23-6.74,21.6-11.75,8.57-6.72,8.23-12.28.43-19.77-10.32-9.91-20.71-19.76-31.29-29.39-5.52-5-8.72-10.16-7-18.25,2.82-12.93,5.44-26,6.58-39.15,1.05-12,2.68-25-.61-36.21-7-23.76-16.69-46.77-25.95-69.81-4.82-12-11.07-23.42-16.68-35.1l-2.47,1c.23,7.3-1.27,13.72,4.91,21.27,14.22,17.38,19.37,38.77,20.2,61.09,0,.36-.91.74-2.3,1.81C183.33,310,189.46,286.77,176.72,271.55Zm-9-26.94-3.41-1.27a15.47,15.47,0,0,0-2.43,3.07c-11.44,25.75-23.06,51.42-34.12,77.33-5.73,13.44-10.29,26.95-7,42.42,3.86,18.14,6.12,36.67,8.1,55.14a19.52,19.52,0,0,1-4.66,13.79c-11.14,11.84-23.37,22.64-34.81,34.21-2.53,2.55-5.1,6.74-4.89,10,.5,7.55,24.19,22.5,31.75,20.65,1.7-.41,3.23-2.07,4.54-3.44,11.38-12,22.55-24.22,34.08-36.09,8.42-8.66,11.64-18.79,11.6-30.74-.19-49.27,0-98.54,0-147.81,0-3.13-.31-6.25-.47-9.37l-3.44-.59q-8.21,27.23-16.4,54.44l-3.43-.56c-.34-3.63-1.94-7.71-.82-10.82,6.58-18.32,13.85-36.39,20.74-54.6C164.61,255.21,166,249.86,167.71,244.61ZM303.2,494.51c0-2.47.32-4.16,0-5.68-7.42-30.87-25.65-53.48-53.58-67.93-6.19-3.2-14-3.76-21.21-4.36-4.75-.39-8.28,2-6.14,8.22,5.08,14.7,23,27.64,38.63,27.5C280.74,452.09,290,460,291,479.7,291.36,487.7,294.45,492,303.2,494.51ZM210.07,506.3c1.6,13.45,6.25,17.92,18.2,18.11,22.61.35,51.54-24.08,54.9-46.36,1.78-11.81-3.07-17.77-16-18.87.71,15.52-8.16,26.55-17.45,37.63C238.77,509.86,224.17,506.88,210.07,506.3Zm-80.67.49C90.91,505.68,80.06,496.27,74.26,459c-12.35-.65-17.21,3.65-16.67,14.78,1.18,24.65,30.94,51.74,55.58,50.61C124.94,523.85,129.23,519.2,129.4,506.79ZM66.52,291.92C56,299.43,46.94,322.35,49.89,333.57c2.33,8.87,10,13.15,18.23,10.23,9.62-3.39,15-13.54,11.26-23C75.57,311,70.86,301.57,66.52,291.92Zm212.76,3.8c-4.15,8.19-8.16,16.39-12.45,24.44-2.83,5.3-4.8,10.9.45,15.24s11.34,8.43,17.73,10.71c2.19.78,8-3.53,9.49-6.74C300.36,326.91,292.24,303.73,279.28,295.72Z"/><path class="cls-1" d="M207.19,526c-2.71,7.7-4.6,15.86-8.54,22.87-1.52,2.7-8.68,4.87-11.55,3.55-4.41-2-7.35-7.28-10.91-11.17,3.13-2.44,5.94-5.61,9.46-7.16,7-3.11,14.48-5.32,21.75-7.9Z"/><path class="cls-1" d="M81.84,218.56l68.82,20.07C138,250.62,96.79,238.62,81.84,218.56Z"/><path class="cls-1" d="M194.09,239l65.5-22.37C253.92,234.34,210.21,250.48,194.09,239Z"/><path class="cls-1" d="M136.88,266.48c-18.57,18.55-41.76,8.22-50.44-23C98.93,260.47,113.69,272.45,136.88,266.48Z"/><path class="cls-1" d="M258.26,240.63c-.59,14.89-8.16,25.1-20.58,30.71-9.9,4.46-20.43,4.09-29.9-4.56C230.79,269.57,247.26,260.63,258.26,240.63Z"/><path class="cls-1" d="M168.73,184c3.68,4.87,7.55,8,7,9.78-.84,2.89-4.37,6.35-7.23,6.83-2,.34-6.68-3.78-6.76-6C161.68,191.92,165.19,189.09,168.73,184Z"/><path class="cls-1" d="M270.08,476.84c8,15.06-2.93,29.87-21.06,29C256.21,495.88,271.44,492.4,270.08,476.84Z"/><path class="cls-1" d="M93.4,505.75c-17,2.89-29.16-13-23.24-32.33C74,488.84,80.4,499.75,93.4,505.75Z"/><path class="cls-1" d="M398.32,26.2h39.82V269H398.32Z"/><path class="cls-1" d="M606.15,161.39c0-35.29-19.21-53.45-48.2-53.45-29.35,0-48.56,18.16-48.56,53.45V269H469.57V76.5h39.82v22c12.93-15.72,34.24-25.15,57.29-25.15,45.06,0,79,28.29,79,82.09V269H606.15Z"/><path class="cls-1" d="M753.2,73.36c25.15,0,51.7,11.88,66.37,30V10.48h40.17V269H819.57V240c-12.22,17.47-35.28,32.14-66.72,32.14-50.65,0-90.82-40.87-90.82-100.25S702.2,73.36,753.2,73.36Zm8,34.58c-29.69,0-58.34,22.36-58.34,63.93s28.65,65.67,58.34,65.67c30,0,58.33-23.41,58.33-65C819.57,131.34,791.28,107.94,761.24,107.94Z"/><path class="cls-1" d="M885.93,25.5a25.33,25.33,0,1,1,50.65,0,25.33,25.33,0,1,1-50.65,0Z"/><rect class="cls-1" x="891.17" y="76.5" width="39.82" height="192.47"/><path class="cls-1" d="M1040,73.36c32.49,0,54.85,15.37,66.72,31.09V76.5h40.17V269h-40.17V240.33c-12.22,16.42-35.28,31.79-67.42,31.79-49.95,0-90.12-40.87-90.12-100.25S989.32,73.36,1040,73.36Zm8.39,34.58c-29.7,0-58.34,22.36-58.34,63.93s28.64,65.67,58.34,65.67c30,0,58.33-23.41,58.33-65C1106.69,131.34,1078.4,107.94,1048.36,107.94Z"/><path class="cls-1" d="M1314.87,161.39c0-35.29-19.21-53.45-48.2-53.45-29.35,0-48.56,18.16-48.56,53.45V269h-39.82V76.5h39.82v22c12.93-15.72,34.23-25.15,57.29-25.15,45.06,0,78.95,28.29,78.95,82.09V269h-39.48Z"/><path class="cls-1" d="M397.86,302.11H441.6l86.74,193.76,86.4-193.76h43.37V549.2H617.58V380L542.21,549.2H514.12L438.39,380V549.2H397.86Z"/><path class="cls-1" d="M774.35,552.4c-56.17,0-97.77-39.82-97.77-101.33s39.82-101,97.77-101c55.82,0,95.28,38.76,95.28,96.35a124.55,124.55,0,0,1-1.42,19.91H718.53c2.85,32.35,26,51.91,55.82,51.91,24.89,0,38.75-12.09,46.22-27.38H864.3C853.28,525,822.35,552.4,774.35,552.4ZM718.89,433.65H827.32c-.71-30.22-24.53-49.42-54.75-49.42C745.2,384.23,723.15,402.72,718.89,433.65Z"/><path class="cls-1" d="M967,350.1c33.06,0,55.81,15.65,67.9,31.65V353.3h40.89V549.2h-40.89V520.05C1022.5,536.76,999,552.4,966.32,552.4c-50.84,0-91.72-41.6-91.72-102S915.48,350.1,967,350.1Zm8.53,35.2c-30.22,0-59.38,22.76-59.38,65.06s29.16,66.84,59.38,66.84c30.57,0,59.37-23.82,59.37-66.13C1034.94,409.12,1006.14,385.3,975.57,385.3Z"/><path class="cls-1" d="M1107.81,286.11h40.53V549.2h-40.53Z"/><path class="cls-1" d="M23.34,657h5.52v41.71c0,8.36-5.52,14-14.19,14C5.76,712.69,0,706.93,0,697.63H5.6c.08,5.52,2.52,10.17,9.07,10.17,6.38,0,8.67-4.49,8.67-9.07Z"/><path class="cls-1" d="M106.22,699.05H81.14l-4.81,13.09H70.49L90.6,657.73h6.23l20,54.41H111ZM93.68,664.67,82.8,694.47h21.76Z"/><path class="cls-1" d="M198.79,657v55.12h-5.52l-30.52-46.37v46.37h-5.52V657h5.52l30.52,46.29V657Z"/><path class="cls-1" d="M239,674.05l4.57-17H250l-6.94,17Z"/><path class="cls-1" d="M306.65,712.69c-11,0-18.29-6.31-18.61-14.75h5.84c.47,4.58,3.86,10.1,12.77,10.1,7.65,0,12.14-4.5,12.14-10.18,0-16.24-30.28-6-30.28-26.73,0-8.52,7-14.74,17.67-14.74,10.49,0,16.8,5.83,17.74,13.4h-6c-.63-3.86-4.34-8.59-12-8.67-6.46-.08-11.83,3.47-11.83,9.85,0,15.93,30.28,6.16,30.28,26.66C324.39,705.12,318.32,712.69,306.65,712.69Z"/><path class="cls-1" d="M419.72,657h29.81v4.57H425.24v20.58h20.5v4.58h-20.5v25.39h-5.52Z"/><path class="cls-1" d="M522.07,699.05H497l-4.82,13.09h-5.83l20.11-54.41h6.23l20,54.41h-5.84Zm-12.54-34.38-10.88,29.8h21.77Z"/><path class="cls-1" d="M573.09,657.73h5.83L600,704.88l21-47.15H627v54.41h-5.52V668.69L602,712.14h-4l-19.4-43.29v43.29h-5.52Z"/><path class="cls-1" d="M671,657h5.52v55.12H671Z"/><path class="cls-1" d="M726.14,657v50.62h19.79v4.5H720.61V657Z"/><path class="cls-1" d="M780.78,657H787l14.35,28.62L815.64,657h6.14l-17.66,33.67v21.45H798.6V690.69Z"/><path class="cls-1" d="M920,686.67v25.47h-5.52V657H920V682.8L943.92,657h7l-25.79,27.52,26,27.6h-7.26Z"/><path class="cls-1" d="M990.84,657h5.52v55.12h-5.52Z"/><path class="cls-1" d="M1036.49,657h36.2v4.57h-15.3v50.55h-5.52V661.59h-15.38Z"/><path class="cls-1" d="M1137.42,656.39c12.3,0,21.45,6.15,25.39,16.71h-6.46c-3.08-7.33-9.55-11.9-18.93-11.9-12.07,0-21.29,8.91-21.29,23.34s9.22,23.26,21.29,23.26c9.38,0,15.85-4.57,18.93-11.75h6.46c-3.94,10.41-13.09,16.56-25.39,16.56-15.3,0-27-11.51-27-28.07S1122.12,656.39,1137.42,656.39Z"/><path class="cls-1" d="M1240.71,686.35h-29.88v25.79h-5.52V657h5.52v24.76h29.88V657h5.52v55.12h-5.52Z"/><path class="cls-1" d="M1319.17,661.51h-23.26v20.58h20.89v4.58h-20.89v20.89h23.26v4.58h-28.78v-55.2h28.78Z"/><path class="cls-1" d="M1403.15,657v55.12h-5.52l-30.52-46.37v46.37h-5.52V657h5.52l30.52,46.29V657Z"/><line class="cls-2" x1="2.57" y1="617.04" x2="1400.57" y2="617.04"/><line class="cls-2" x1="2.57" y1="752.03" x2="1400.57" y2="752.03"/></g></g></svg>