<svg xmlns="http://www.w3.org/2000/svg" viewBox="0 0 1406.15 753.03"><defs><style>.cls-1,.cls-2{fill:#fff;}.cls-2{stroke:#fff;stroke-miterlimit:10;stroke-width:2px;}</style></defs><title>newlogoobject</title><g id="Layer_2" data-name="Layer 2"><g id="Layer_1-2" data-name="Layer 1"><path class="cls-1" d="M208.9,526.17c-.26-7.81-.42-15.63-.82-23.43-.15-2.78,0-6.22-1.47-8.19C197,481.9,186.82,469.64,177,457.09c-3.91-5-6.86-3.79-10.2.49C157,470.14,147,482.5,137.38,495.22c-1.5,2-1.66,5.45-1.48,8.17.45,6.74,1.46,13.44,2.24,20.16l-3.27,3.15c7,2.47,14.32,4.49,21.08,7.6,4,1.83,7.16,5.41,10.69,8.2-3.8,3.75-7,8.93-11.56,10.85-4.88,2-10.22.31-12.24-6.59a78.48,78.48,0,0,0-9.64-20.61c-3.78,11.38,6.39,22.53-1,33.86-1-4.89-1.56-10-3.29-14.63s-4.75-9-7.19-13.4L118,533.15c1.2,6.05,2.06,12.19,3.67,18.13,3.17,11.68-.12,17.14-10.59,16.74-9-.34-12.22-5.29-7.89-13.14,1.85-3.35,6.16-5.45,7.69-8.86,1.75-3.91,1.66-8.64,2.37-13-3.89,1.31-8.71,1.61-11.45,4.15-4.81,4.46-8.21,10.42-12.46,15.53-6.78,8.17-9.08,7.85-15.17-2l19.69-21.18L56.62,501.69c-2.81,2.16-8.92,6-13.92,10.9-6.71,6.62-12.24,6.44-19-1.9,7.29-5.83,15-10.95,21.25-17.42,3.18-3.28,5.65-9.15,5.28-13.59-1.08-13.07,2.2-19.35,15.24-23.32,4.09-1.24,8.61-2.52,12.72-2,16.06,2,24.71-8.33,35.05-20.1-4.38,0-7.2-.37-9.89.06-34.55,5.55-57.47-12.08-74.2-39.13C5.2,356.52,1.29,312.86,3.93,269A968.45,968.45,0,0,1,17.19,160.25c6.39-36.46,18.23-71.38,44.26-99.51,20.46-22.11,45.35-37.24,75-42.28,19.79-3.37,40.33-5.29,60.29-4,30.07,1.91,55.76,16.05,78,36.27,37.64,34.28,52.11,78.8,53.69,127.78,1.61,50.28.5,100.64,1.23,151,.24,16.45,2.53,32.88,4,50.45-5.07-.6-11-.79-16.55-2.26-1.62-.43-3.26-4.53-3.22-6.92,1-53.62,1.46-107.27,3.58-160.85,1.16-29.27-4.1-56.81-15-83.59C291,98.33,275.56,72.89,253.59,52,215.21,15.41,159.73,9.71,112.51,35.9,69.79,59.59,44.33,95.75,32,142.17a33.71,33.71,0,0,0-.57,4.62l2.46,1.65c2.42-3.15,5.86-5.95,7.09-9.51,16.3-47.55,48.83-78.57,95.82-95.13,5.31-1.87,11-3.21,15.72-6.11,11.36-7,21.19-4.77,32.4,1.27,12.38,6.67,26.81,9.57,39.05,16.44,19.35,10.86,34,27.39,46.42,46.21C241.06,80,212.94,55.93,172.72,53.93V94.54q0,11.5,0,23c0,25,17.93,43.83,43.21,44.67,26.89.9,48.43,10.5,61.43,35.34,1.21,2.3,3.22,4.18,5.17,6.64l11.41-3.5c1.7,2.53,3.27,5,5,7.42,3.38,4.63,3.22,8.61-2,11.68-6.12,3.6-7.65,8.82-7.7,15.85-.1,12-.75,24.05-2.93,35.77-1.53,8.24,1.7,13.76,5.24,20.28,5.64,10.38,12,20.94,14.66,32.22,2.92,12.23-1.07,23.86-14,30a9.09,9.09,0,0,0-3,2.43c-.55.68-.57,1.8-.34.95L302,365.23,289,374l11.4,1.79c-6.7,6.65-10.93,14.15-16.47,15.27-4,.82-12.39-6-13.86-10.93-1.23-4.14-1.12-9.25-3-13.95-.49-1.24,3.11-5.11,5.55-6.21s5.72-.24,12-.24l-26.26-21.52c-24.55,16.43-28.37,41.55-29.42,65,16.13,7,31.51,12.15,45.31,20.06,18,10.28,25.83,28.9,32.34,47.48,4.47,12.79,7.52,26.09,10.75,39.27.43,1.75-1.31,5-3,6a7.32,7.32,0,0,1-6.65-.12c-5.64-4.07-10.58-9.13-16.3-13.07-2-1.35-6.43-1.78-8-.49-10.5,8.5-20.52,17.57-32,27.58l18.33,21.26c-5,9.3-8.64,9.73-14.62,1.83-4.6-6.08-8.91-12.51-14.32-17.77-2.1-2-6.89-1.3-10.46-1.83.31,3.71-.28,7.84,1.19,11s5.87,4.81,7.37,7.91c1.82,3.75,2,8.32,2.81,12.53-5.59.43-11.54,2.24-16.65.88-4.54-1.2-7.72-5.55-4.83-11.94,2.75-6.09,4-12.88,6.36-21-17.33,4.4-8.55,19.7-16.77,29.66-1.87-11.16-2.63-19.6,2.66-27.42,3.63-5.36,1.74-7.79-3.77-9ZM62.27,358c-5.71-4.44-9.5-6.67-12.32-9.78-3-3.28-6.85-7.25-7.2-11.19-1.37-15.43-.86-31,10.66-43.21,8.88-9.39,12.3-20,11-32.69-.46-4.49.92-9.17,1.46-13.77,7.23,38.36,16.12,74.67,47.73,102,4.72-13.37,8.24-25.14,13-36.39,11.45-27.16,23.84-53.94,35-81.21,2.76-6.75,7.19-6.19,11.72-5.53,3.22.47,7.8,2.55,8.87,5.12,11.75,28.14,22.88,56.54,34.3,84.82,4.67,11.58,9.62,23.05,15.06,36,4.69-4.31,8.62-7.29,11.78-10.93,24.53-28.25,35.83-61.63,37.49-98.57.33-7.29,1.94-15.64-.86-21.75C266.72,192,253,176.14,216.42,173.57c-8.25-.57-17.28-3.1-24.11-7.55-9.61-6.27-17.51-15.18-26.66-23.43-.62,1.4-1.82,4.32-3.17,7.17-6.23,13.05-15.35,24.15-29.29,28-17.37,4.76-35.74,6.08-51.3,17.8C85,189.11,88.54,182.7,94,179.86c9.52-5,20-8.26,30.38-11.43,27.41-8.4,40.18-25.29,40.11-53.84,0-17.33-.4-34.67.17-52,.28-8.36-2.75-10.26-10.5-9.47-30.69,3.15-55,18-75.67,40-23.26,24.75-35.3,53.58-36,88.12-.59,28.61,6.15,55.28,14.62,81.91,1.55,4.87,3.66,9.32-3.72,13.09C41,251.69,37.56,225,30.73,199.29a6.5,6.5,0,0,0-2.07,3.45c-10,37.06-11.18,74.93-9.5,112.92,1,22.95,5.49,45.2,15,66.58,15.11,33.9,38.93,47.86,75.37,42.24,7.67-1.18,12.17-4,9.87-13.15C115.33,395,113,378.05,107.88,362c-2.62-8.13-9.73-14.86-15-22.05-.74-1-3.56-1.87-4.22-1.33-6.92,5.65-13.59,11.6-21,18.06,2.36.81,3.25,1.06,4.11,1.42,3.37,1.43,6.72,2.89,10.08,4.34-1.61,2.9-3.42,5.7-4.76,8.72a26.25,26.25,0,0,0-1.52,6.33c-1.19,7.08-10.28,14.54-15.44,12.61-3.61-1.35-16.38-23.46-14.78-26.85,1.07-2.29,4-4.19,6.56-5.15C54.1,357.29,56.92,358,62.27,358Zm116-86.41-3.2,1c0,3.58,0,7.15,0,10.72.55,49.94,1.28,99.89,1.48,149.83,0,8.95,2.61,16.21,8.36,22.63,12.6,14.08,25.15,28.21,38.06,42,1.56,1.67,5.75,2.72,7.73,1.83,7.48-3.35,15.23-6.74,21.6-11.75,8.57-6.72,8.23-12.28.43-19.77-10.32-9.91-20.71-19.76-31.29-29.39-5.52-5-8.72-10.16-7-18.25,2.82-12.93,5.44-26,6.58-39.15,1.05-12,2.68-25-.61-36.21-7-23.76-16.69-46.77-25.95-69.81-4.82-12-11.07-23.42-16.68-35.1l-2.47,1c.23,7.3-1.27,13.72,4.91,21.27,14.22,17.38,19.37,38.77,20.2,61.09,0,.36-.91.74-2.3,1.81C184.83,310,191,286.77,178.22,271.55Zm-9-26.94-3.41-1.27a15.47,15.47,0,0,0-2.43,3.07c-11.44,25.75-23.06,51.42-34.12,77.33-5.73,13.44-10.29,26.95-7,42.42,3.86,18.14,6.12,36.67,8.1,55.14a19.52,19.52,0,0,1-4.66,13.79c-11.14,11.84-23.37,22.64-34.81,34.21-2.53,2.55-5.1,6.74-4.89,10,.5,7.55,24.19,22.5,31.75,20.65,1.7-.41,3.23-2.07,4.54-3.44,11.38-12,22.55-24.22,34.08-36.09,8.42-8.66,11.64-18.79,11.6-30.74-.19-49.27,0-98.54,0-147.81,0-3.13-.31-6.25-.47-9.37l-3.44-.59q-8.21,27.23-16.4,54.44l-3.43-.56c-.34-3.63-1.94-7.71-.82-10.82,6.58-18.32,13.85-36.39,20.74-54.6C166.11,255.21,167.54,249.86,169.21,244.61ZM304.7,494.51c0-2.47.32-4.16,0-5.68C297.24,458,279,435.35,251.08,420.9c-6.19-3.2-14-3.76-21.21-4.36-4.75-.39-8.28,2-6.14,8.22,5.08,14.7,23,27.64,38.63,27.5,19.88-.17,29.14,7.76,30.11,27.44C292.86,487.7,296,492,304.7,494.51ZM211.56,506.3c1.61,13.45,6.25,17.92,18.21,18.11,22.61.35,51.54-24.08,54.9-46.36,1.78-11.81-3.07-17.77-16-18.87.71,15.52-8.16,26.55-17.45,37.63C240.27,509.86,225.67,506.88,211.56,506.3Zm-80.66.49C92.41,505.68,81.56,496.27,75.76,459c-12.35-.65-17.21,3.65-16.67,14.78,1.18,24.65,30.94,51.74,55.58,50.61C126.44,523.85,130.73,519.2,130.9,506.79ZM68,291.92c-10.57,7.51-19.58,30.43-16.63,41.65,2.33,8.87,10,13.15,18.23,10.23,9.62-3.39,15-13.54,11.26-23C77.07,311,72.36,301.57,68,291.92Zm212.76,3.8c-4.15,8.19-8.16,16.39-12.45,24.44-2.83,5.3-4.8,10.9.45,15.24s11.34,8.43,17.73,10.71c2.19.78,8-3.53,9.48-6.74C301.86,326.91,293.74,303.73,280.78,295.72Z"/><path class="cls-1" d="M208.69,526c-2.71,7.7-4.6,15.86-8.54,22.87-1.52,2.7-8.68,4.87-11.55,3.55-4.42-2-7.35-7.28-10.91-11.17,3.13-2.44,5.94-5.61,9.46-7.16,7-3.11,14.48-5.32,21.75-7.9Z"/><path class="cls-1" d="M83.34,218.56l68.82,20.07C139.5,250.62,98.29,238.62,83.34,218.56Z"/><path class="cls-1" d="M195.59,239l65.5-22.37C255.42,234.34,211.71,250.48,195.59,239Z"/><path class="cls-1" d="M138.38,266.48c-18.57,18.55-41.76,8.22-50.44-23C100.43,260.47,115.19,272.45,138.38,266.48Z"/><path class="cls-1" d="M259.76,240.63c-.59,14.89-8.16,25.1-20.58,30.71-9.9,4.46-20.43,4.09-29.9-4.56C232.29,269.57,248.76,260.63,259.76,240.63Z"/><path class="cls-1" d="M170.23,184c3.68,4.87,7.55,8,7,9.78-.84,2.89-4.37,6.35-7.23,6.83-2,.34-6.68-3.78-6.76-6C163.18,191.92,166.69,189.09,170.23,184Z"/><path class="cls-1" d="M271.58,476.84c8,15.06-2.93,29.87-21.06,29C257.71,495.88,272.94,492.4,271.58,476.84Z"/><path class="cls-1" d="M94.9,505.75c-17,2.89-29.16-13-23.24-32.33C75.45,488.84,81.9,499.75,94.9,505.75Z"/><path class="cls-1" d="M399.82,26.2h39.82V269H399.82Z"/><path class="cls-1" d="M607.65,161.39c0-35.29-19.21-53.45-48.2-53.45-29.35,0-48.56,18.16-48.56,53.45V269H471.07V76.5h39.82v22c12.93-15.72,34.24-25.15,57.29-25.15,45.06,0,79,28.29,79,82.09V269H607.65Z"/><path class="cls-1" d="M754.7,73.36c25.15,0,51.7,11.88,66.37,30V10.48h40.17V269H821.07V240c-12.23,17.47-35.28,32.14-66.72,32.14-50.65,0-90.82-40.87-90.82-100.25S703.7,73.36,754.7,73.36Zm8,34.58c-29.69,0-58.34,22.36-58.34,63.93s28.65,65.67,58.34,65.67c30,0,58.33-23.41,58.33-65C821.07,131.34,792.78,107.94,762.74,107.94Z"/><path class="cls-1" d="M887.43,25.5a25.33,25.33,0,1,1,50.65,0,25.33,25.33,0,1,1-50.65,0Z"/><rect class="cls-1" x="892.67" y="76.5" width="39.82" height="192.47"/><path class="cls-1" d="M1041.47,73.36c32.49,0,54.85,15.37,66.72,31.09V76.5h40.17V269h-40.17V240.33c-12.22,16.42-35.28,31.79-67.42,31.79-49.95,0-90.12-40.87-90.12-100.25S990.82,73.36,1041.47,73.36Zm8.39,34.58c-29.7,0-58.34,22.36-58.34,63.93s28.64,65.67,58.34,65.67c30,0,58.33-23.41,58.33-65C1108.19,131.34,1079.9,107.94,1049.86,107.94Z"/><path class="cls-1" d="M1316.37,161.39c0-35.29-19.21-53.45-48.2-53.45-29.35,0-48.56,18.16-48.56,53.45V269h-39.82V76.5h39.82v22c12.93-15.72,34.23-25.15,57.29-25.15,45.06,0,78.95,28.29,78.95,82.09V269h-39.48Z"/><path class="cls-1" d="M399.36,302.11h43.73l86.75,193.76,86.4-193.76h43.37V549.2H619.08V380L543.71,549.2H515.62L439.89,380V549.2H399.36Z"/><path class="cls-1" d="M775.85,552.4c-56.17,0-97.77-39.82-97.77-101.33s39.82-101,97.77-101c55.82,0,95.28,38.76,95.28,96.35a124.55,124.55,0,0,1-1.42,19.91H720c2.85,32.35,26,51.91,55.82,51.91,24.89,0,38.75-12.09,46.22-27.38H865.8C854.78,525,823.85,552.4,775.85,552.4ZM720.39,433.65H828.82c-.71-30.22-24.53-49.42-54.75-49.42C746.7,384.23,724.65,402.72,720.39,433.65Z"/><path class="cls-1" d="M968.54,350.1c33.06,0,55.81,15.65,67.9,31.65V353.3h40.89V549.2h-40.89V520.05c-12.44,16.71-35.91,32.35-68.62,32.35-50.84,0-91.72-41.6-91.72-102S917,350.1,968.54,350.1Zm8.53,35.2c-30.22,0-59.38,22.76-59.38,65.06s29.16,66.84,59.38,66.84c30.57,0,59.37-23.82,59.37-66.13C1036.44,409.12,1007.64,385.3,977.07,385.3Z"/><path class="cls-1" d="M1109.31,286.11h40.53V549.2h-40.53Z"/><path class="cls-1" d="M24.84,657h5.52v41.71c0,8.36-5.52,14-14.19,14-8.91,0-14.67-5.76-14.67-15.06H7.1c.08,5.52,2.52,10.17,9.07,10.17,6.38,0,8.67-4.49,8.67-9.07Z"/><path class="cls-1" d="M16.17,714.19C6.35,714.19,0,707.69,0,697.63v-1.5H8.58l0,1.48c.06,4,1.42,8.69,7.57,8.69s7.17-4.74,7.17-7.57V655.51h8.52v43.22C31.86,708,25.55,714.19,16.17,714.19ZM3.06,699.13c.57,7.48,5.48,12.06,13.11,12.06s12.69-4.89,12.69-12.46V658.51H26.34v40.22c0,5.11-2.67,10.57-10.17,10.57-6.06,0-9.9-3.77-10.49-10.17Z"/><path class="cls-1" d="M107.72,699.05H82.64l-4.81,13.09H72L92.1,657.73h6.23l20,54.41h-5.83ZM95.18,664.67,84.3,694.47h21.76Z"/><path class="cls-1" d="M120.51,713.64h-9l-4.81-13.09h-23l-4.82,13.09h-9l21.22-57.41h8.32Zm-6.94-3h2.64L97.29,659.23H93.15l-19,51.41h2.63l4.81-13.09h27.17ZM108.2,696h-26l13-35.68Zm-21.76-3h17.47L95.18,669Z"/><path class="cls-1" d="M200.28,657v55.12h-5.51l-30.52-46.37v46.37h-5.52V657h5.52l30.52,46.29V657Z"/><path class="cls-1" d="M201.79,713.64H194l-28.21-42.86v42.86h-8.52V655.51h7.83l28.2,42.79V655.51h8.53Zm-6.22-3h3.22V658.51h-2.53v49.8l-32.82-49.8h-3.21v52.13h2.52V660.76Z"/><path class="cls-1" d="M240.5,674.05l4.57-17h6.39l-6.94,17Z"/><path class="cls-1" d="M245.53,675.55h-7l5.38-20h9.77Zm-3.08-3h1.06l5.72-14h-3Z"/><path class="cls-1" d="M308.15,712.69c-11,0-18.29-6.31-18.61-14.75h5.84c.47,4.58,3.86,10.1,12.77,10.1,7.65,0,12.14-4.5,12.14-10.18,0-16.24-30.28-6-30.28-26.73,0-8.52,7-14.74,17.67-14.74,10.49,0,16.8,5.83,17.74,13.4h-6c-.63-3.86-4.34-8.59-12-8.67-6.46-.08-11.83,3.47-11.83,9.85,0,15.93,30.28,6.16,30.28,26.66C325.89,705.12,319.82,712.69,308.15,712.69Z"/><path class="cls-1" d="M308.15,714.19c-11.48,0-19.75-6.66-20.11-16.19l-.06-1.56h8.75l.14,1.35c.21,2.05,1.65,8.75,11.28,8.75,6.37,0,10.64-3.49,10.64-8.68,0-6.16-4.8-7.76-12.64-9.86s-17.64-4.72-17.64-16.87c0-9.56,7.88-16.24,19.17-16.24,10.56,0,18.11,5.77,19.23,14.71l.21,1.69h-9L318,670c-.45-2.72-3.16-7.34-10.52-7.41a11.23,11.23,0,0,0-8.11,2.8,7.54,7.54,0,0,0-2.21,5.55c0,6,4.79,7.63,12.61,9.78s17.67,4.84,17.67,16.88C327.39,705.86,320.78,714.19,308.15,714.19Zm-17-14.75c1.08,7.09,7.69,11.75,17,11.75,10.66,0,16.24-6.82,16.24-13.56,0-9.76-7.51-11.81-15.46-14-7.29-2-14.82-4.06-14.82-12.67a10.52,10.52,0,0,1,3.1-7.68,14,14,0,0,1,10-3.67h.23c7.42.07,11.85,4.34,13.16,8.67h3c-1.61-6.46-7.55-10.4-15.94-10.4-9.52,0-16.17,5.44-16.17,13.24,0,9.85,7.49,11.86,15.41,14,7.32,1.95,14.87,4,14.87,12.75,0,6.88-5.61,11.68-13.64,11.68-8.84,0-13-5.17-14-10.1Z"/><path class="cls-1" d="M421.22,657H451v4.57H426.74v20.58h20.5v4.58h-20.5v25.39h-5.52Z"/><path class="cls-1" d="M428.24,713.64h-8.52V655.51h32.81v7.58H428.24v17.58h20.5v7.58h-20.5Zm-5.52-3h2.52V685.25h20.5v-1.58h-20.5V660.09h24.29v-1.58H422.72Z"/><path class="cls-1" d="M523.57,699.05H498.5l-4.82,13.09h-5.83L508,657.73h6.23l20,54.41h-5.84ZM511,664.67l-10.88,29.8h21.77Z"/><path class="cls-1" d="M536.37,713.64h-9l-4.82-13.09h-23l-4.81,13.09h-9l21.21-57.41h8.32Zm-6.94-3h2.64l-18.93-51.41H509l-19,51.41h2.64l4.81-13.09h27.17ZM524.06,696H498l13-35.68Zm-21.76-3h17.47L511,669Z"/><path class="cls-1" d="M574.59,657.73h5.83l21.06,47.15,21-47.15h5.92v54.41h-5.52V668.69l-19.4,43.45h-4l-19.4-43.29v43.29h-5.52Z"/><path class="cls-1" d="M630,713.64h-8.52V675.73L604.5,713.64h-6l-16.92-37.78v37.78h-8.52V656.23h8.3l20.09,45,20.08-45H630Zm-5.52-3H627V659.23H623.5l-22,49.33-22-49.33h-3.36v51.41h2.52V661.83l21.87,48.81h2.07l21.88-49Z"/><path class="cls-1" d="M672.52,657H678v55.12h-5.52Z"/><path class="cls-1" d="M679.54,713.64H671V655.51h8.52Zm-5.52-3h2.52V658.51H674Z"/><path class="cls-1" d="M727.64,657v50.62h19.79v4.5H722.11V657Z"/><path class="cls-1" d="M748.93,713.64H720.61V655.51h8.53v50.63h19.79Zm-25.32-3h22.32v-1.5H726.14V658.51h-2.53Z"/><path class="cls-1" d="M782.28,657h6.23l14.35,28.62L817.13,657h6.15l-17.66,33.67v21.45H800.1V690.69Z"/><path class="cls-1" d="M807.12,713.64H798.6V691.06l-18.81-35.55h9.64l13.43,26.78,13.35-26.78h9.55l-18.64,35.55Zm-5.52-3h2.52V690.32l16.68-31.81h-2.74L802.86,689l-15.28-30.48h-2.81l16.83,31.81Z"/><path class="cls-1" d="M921.53,686.67v25.47H916V657h5.52V682.8L945.42,657h7l-25.79,27.52,26,27.6h-7.26Z"/><path class="cls-1" d="M956.15,713.64H944.77L923,690.46v23.18h-8.52V655.51H923V679l21.74-23.47H955.9l-27.19,29Zm-10.08-3h3.13l-24.6-26.1,24.38-26h-2.9l-24.3,26.23Zm-28.56,0H920V658.51h-2.52Z"/><path class="cls-1" d="M992.34,657h5.52v55.12h-5.52Z"/><path class="cls-1" d="M999.36,713.64h-8.52V655.51h8.52Zm-5.52-3h2.52V658.51h-2.52Z"/><path class="cls-1" d="M1038,657h36.2v4.57h-15.3v50.55h-5.52V661.59H1038Z"/><path class="cls-1" d="M1060.39,713.64h-8.52V663.09h-15.38v-7.58h39.2v7.58h-15.3Zm-5.52-3h2.52V660.09h15.3v-1.58h-33.2v1.58h15.38Z"/><path class="cls-1" d="M1138.92,656.39c12.3,0,21.45,6.15,25.39,16.71h-6.46c-3.08-7.33-9.55-11.9-18.93-11.9-12.07,0-21.29,8.91-21.29,23.34s9.22,23.26,21.29,23.26c9.38,0,15.85-4.57,18.93-11.75h6.46c-3.94,10.41-13.09,16.56-25.39,16.56-15.3,0-27-11.51-27-28.07S1123.62,656.39,1138.92,656.39Z"/><path class="cls-1" d="M1138.92,714.11c-16.5,0-28.47-12.44-28.47-29.57s12-29.65,28.47-29.65c12.83,0,22.6,6.44,26.8,17.69l.75,2h-9.62l-.39-.92c-3-7.08-9.2-11-17.54-11-11.84,0-19.79,8.77-19.79,21.84s7.95,21.76,19.79,21.76c8.32,0,14.55-3.85,17.55-10.84l.39-.91h9.62l-.77,2C1161.5,707.72,1151.73,714.11,1138.92,714.11Zm0-56.22c-14.76,0-25.47,11.2-25.47,26.65s10.71,26.57,25.47,26.57c10.68,0,19-4.91,23.12-13.56h-3.23c-3.63,7.59-10.66,11.75-19.89,11.75-13.42,0-22.79-10.18-22.79-24.76s9.37-24.84,22.79-24.84c9.26,0,16.29,4.21,19.9,11.9h3.24C1158,662.85,1149.63,657.89,1138.92,657.89Z"/><path class="cls-1" d="M1242.21,686.35h-29.88v25.79h-5.52V657h5.52v24.76h29.88V657h5.52v55.12h-5.52Z"/><path class="cls-1" d="M1249.23,713.64h-8.52V687.85h-26.88v25.79h-8.52V655.51h8.52v24.77h26.88V655.51h8.52Zm-5.52-3h2.52V658.51h-2.52v24.77h-32.88V658.51h-2.52v52.13h2.52V684.85h32.88Z"/><path class="cls-1" d="M1320.67,661.51h-23.26v20.58h20.89v4.58h-20.89v20.89h23.26v4.58h-28.78v-55.2h28.78Z"/><path class="cls-1" d="M1322.17,713.64h-31.78v-58.2h31.78V663h-23.26v17.58h20.89v7.58h-20.89v17.89h23.26Zm-28.78-3h25.78v-1.58h-23.26V685.17h20.89v-1.58h-20.89V660h23.26v-1.57h-25.78Z"/><path class="cls-1" d="M1404.65,657v55.12h-5.52l-30.52-46.37v46.37h-5.52V657h5.52l30.52,46.29V657Z"/><path class="cls-1" d="M1406.15,713.64h-7.83l-28.21-42.86v42.86h-8.52V655.51h7.83l28.21,42.79V655.51h8.52Zm-6.21-3h3.21V658.51h-2.52v49.8l-32.82-49.8h-3.22v52.13h2.52V660.76Z"/><line class="cls-2" x1="4.07" y1="617.04" x2="1402.07" y2="617.04"/><line class="cls-2" x1="4.07" y1="752.03" x2="1402.07" y2="752.03"/></g></g></svg>